<?xml version="1.0" encoding="UTF-8" standalone="no"?>
<!-- Created with Inkscape (http://www.inkscape.org/) -->

<svg
   width="2048"
   height="2048"
   viewBox="0 0 2048 2048"
   version="1.1"
   id="svg5"
   inkscape:version="1.3.2 (091e20e, 2023-11-25)"
   sodipodi:docname="contour.svg"
   inkscape:export-filename="hole_solver.png"
   inkscape:export-xdpi="96"
   inkscape:export-ydpi="96"
   xmlns:inkscape="http://www.inkscape.org/namespaces/inkscape"
   xmlns:sodipodi="http://sodipodi.sourceforge.net/DTD/sodipodi-0.dtd"
   xmlns="http://www.w3.org/2000/svg"
   xmlns:svg="http://www.w3.org/2000/svg">
  <sodipodi:namedview
     id="namedview7"
     pagecolor="#ffffff"
     bordercolor="#666666"
     borderopacity="1.0"
     inkscape:showpageshadow="2"
     inkscape:pageopacity="0.0"
     inkscape:pagecheckerboard="true"
     inkscape:deskcolor="#d1d1d1"
     inkscape:document-units="px"
     showgrid="true"
     inkscape:zoom="3.4228051"
     inkscape:cx="1751.9256"
     inkscape:cy="383.6035"
     inkscape:window-width="2008"
     inkscape:window-height="1023"
     inkscape:window-x="351"
     inkscape:window-y="161"
     inkscape:window-maximized="0"
     inkscape:current-layer="layer1">
    <inkscape:grid
       id="grid1"
       units="px"
       originx="0"
       originy="0"
       spacingx="32"
       spacingy="32"
       empcolor="#0099e5"
       empopacity="0.30196078"
       color="#0099e5"
       opacity="0.14901961"
       empspacing="5"
       dotted="false"
       gridanglex="30"
       gridanglez="30"
       visible="true" />
  </sodipodi:namedview>
  <defs
     id="defs2">
    <inkscape:path-effect
       effect="fillet_chamfer"
       id="path-effect49"
       is_visible="true"
       lpeversion="1"
       nodesatellites_param="F,0,0,1,0,5.2415627,0,1 @ F,0,0,1,0,0,0,1 @ F,0,0,1,0,4,0,1 @ F,0,0,1,0,4.2116687,0,1 @ F,0,0,1,0,0,0,1 @ F,0,0,1,0,5.6358588,0,1 @ F,0,0,1,0,0,0,1"
       radius="0"
       unit="px"
       method="auto"
       mode="F"
       chamfer_steps="1"
       flexible="false"
       use_knot_distance="true"
       apply_no_radius="true"
       apply_with_radius="true"
       only_selected="false"
       hide_knots="false" />
  </defs>
  <g
     inkscape:label="Layer 1"
     inkscape:groupmode="layer"
     id="layer1">
    <path
       id="path26"
       style="fill:#1fc71f;fill-opacity:0.196078;stroke:none;stroke-width:8;stroke-linecap:butt;stroke-linejoin:round;stroke-dasharray:none;stroke-opacity:1"
       d="M 1056 256 L 128 480 L 160 1459.6738 L 832 1907.6738 L 1824 1747.6738 L 1696 467.67383 L 1056 256 z M 352 608 L 1184 608 L 1376 1024 L 1088 1440 L 608 1568 L 320 1344 L 352 608 z M 1408 1312 L 1664 1440 L 1504 1536 L 1664 1664 L 1184 1728 L 1088 1568 L 1408 1312 z " />
    <path
       id="path29"
       style="fill:#1fc71f;fill-opacity:0.196078;stroke:none;stroke-width:8;stroke-linecap:butt;stroke-linejoin:round;stroke-dasharray:none;stroke-opacity:1"
       d="M 544,736 445.10156,1030.7832 512,1280 l 384,64 288,-320 -160,-288 z m 224,128 64,160 192,-64 -64,192 -224,-32 -96,-128 z"
       sodipodi:nodetypes="cccccccccccccc" />
    <path
       style="fill:none;stroke:#1a8eff;stroke-width:8;stroke-linecap:round;stroke-linejoin:miter;stroke-dasharray:none;stroke-opacity:1"
       d="m 416,576 -64,32 64,32"
       id="path3"
       sodipodi:nodetypes="ccc" />
    <path
       style="fill:none;stroke:#ff3333;stroke-width:8;stroke-linecap:round;stroke-linejoin:miter;stroke-dasharray:none;stroke-opacity:1"
       d="M 986.15955,240.43352 1056,256 l -54.3574,46.53245"
       id="path4"
       sodipodi:nodetypes="ccc" />
    <path
       style="fill:none;stroke:#ff3333;stroke-width:8;stroke-linecap:round;stroke-linejoin:miter;stroke-dasharray:none;stroke-opacity:1"
       d="M 1846.7815,1679.8431 1824,1747.6738 1783.4044,1688.75"
       id="path5"
       sodipodi:nodetypes="ccc" />
    <path
       style="fill:none;stroke:#ff3333;stroke-width:8;stroke-linecap:round;stroke-linejoin:miter;stroke-dasharray:none;stroke-opacity:1"
       d="M 1624.9151,475.85472 1696,467.67383 1646.8044,415.71439"
       id="path6"
       sodipodi:nodetypes="ccc" />
    <path
       style="fill:none;stroke:#ff3333;stroke-width:8;stroke-linecap:round;stroke-linejoin:miter;stroke-dasharray:none;stroke-opacity:1"
       d="M 900.58444,1928.0742 832,1907.6738 l 57.47113,-42.6272"
       id="path7"
       sodipodi:nodetypes="ccc" />
    <path
       style="fill:none;stroke:#ff3333;stroke-width:8;stroke-linecap:round;stroke-linejoin:miter;stroke-dasharray:none;stroke-opacity:1"
       d="M 195.16426,1521.9914 160,1459.6738 l 70.95264,9.2593"
       id="path8"
       sodipodi:nodetypes="ccc" />
    <path
       style="fill:none;stroke:#ff3333;stroke-width:8;stroke-linecap:round;stroke-linejoin:miter;stroke-dasharray:none;stroke-opacity:1"
       d="M 98.253051,545.07782 128,480 l 34.21408,62.84421"
       id="path9"
       sodipodi:nodetypes="ccc" />
    <path
       style="fill:none;stroke:#1a8eff;stroke-width:8;stroke-linecap:round;stroke-linejoin:miter;stroke-dasharray:none;stroke-opacity:1"
       d="m 289.13628,1278.9027 29.74694,65.0778 34.21407,-62.8442"
       id="path10"
       sodipodi:nodetypes="ccc" />
    <path
       style="fill:none;stroke:#1a8eff;stroke-width:8;stroke-linecap:round;stroke-linejoin:miter;stroke-dasharray:none;stroke-opacity:1"
       d="M 537.86617,1553.8138 608,1568 577.2686,1503.381"
       id="path11"
       sodipodi:nodetypes="ccc" />
    <path
       style="fill:none;stroke:#1a8eff;stroke-width:8;stroke-linecap:round;stroke-linejoin:miter;stroke-dasharray:none;stroke-opacity:1"
       d="M 1035.2998,1488.401 1088,1440 l -70.3412,-13.1196"
       id="path12"
       sodipodi:nodetypes="ccc" />
    <path
       style="fill:none;stroke:#1a8eff;stroke-width:8;stroke-linecap:round;stroke-linejoin:miter;stroke-dasharray:none;stroke-opacity:1"
       d="M 1364.2699,1094.5861 1376,1024 l -63.5071,32.9681"
       id="path13"
       sodipodi:nodetypes="ccc" />
    <path
       style="fill:none;stroke:#1a8eff;stroke-width:8;stroke-linecap:round;stroke-linejoin:miter;stroke-dasharray:none;stroke-opacity:1"
       d="M 1240.8166,651.49519 1184,608 l -0.706,71.55094"
       id="path14"
       sodipodi:nodetypes="ccc" />
    <path
       style="fill:none;stroke:#ff3333;stroke-width:8;stroke-linecap:round;stroke-linejoin:miter;stroke-dasharray:none;stroke-opacity:1"
       d="M 1127.1834,980.5048 1184,1024 l 0.706,-71.551"
       id="path15"
       sodipodi:nodetypes="ccc" />
    <path
       style="fill:none;stroke:#ff3333;stroke-width:8;stroke-linecap:round;stroke-linejoin:miter;stroke-dasharray:none;stroke-opacity:1"
       d="M 915.04415,1275.027 896,1344 l 66.60535,-26.1491"
       id="path16"
       sodipodi:nodetypes="ccc" />
    <path
       style="fill:none;stroke:#ff3333;stroke-width:8;stroke-linecap:round;stroke-linejoin:miter;stroke-dasharray:none;stroke-opacity:1"
       d="M 580.58442,1259.6005 512,1280 l 57.47111,42.628"
       id="path17"
       sodipodi:nodetypes="ccc" />
    <path
       style="fill:none;stroke:#ff3333;stroke-width:8;stroke-linecap:round;stroke-linejoin:miter;stroke-dasharray:none;stroke-opacity:1"
       d="m 429.53571,1100.6235 15.56585,-69.8403 46.5329,54.3573"
       id="path18"
       sodipodi:nodetypes="ccc" />
    <path
       style="fill:none;stroke:#ff3333;stroke-width:8;stroke-linecap:round;stroke-linejoin:miter;stroke-dasharray:none;stroke-opacity:1"
       d="M 554.65616,806.75596 544,736 493.78863,786.97907"
       id="path19"
       sodipodi:nodetypes="ccc" />
    <path
       style="fill:none;stroke:#ff3333;stroke-width:8;stroke-linecap:round;stroke-linejoin:miter;stroke-dasharray:none;stroke-opacity:1"
       d="M 961.1556,701.78677 1024,736 958.92191,765.74755"
       id="path20"
       sodipodi:nodetypes="ccc" />
    <path
       style="fill:none;stroke:#1a8eff;stroke-width:8;stroke-linecap:round;stroke-linejoin:miter;stroke-dasharray:none;stroke-opacity:1"
       d="M 721.81366,1049.8665 736,1120 671.38101,1089.2685"
       id="path21"
       sodipodi:nodetypes="ccc" />
    <path
       style="fill:none;stroke:#1a8eff;stroke-width:8;stroke-linecap:round;stroke-linejoin:miter;stroke-dasharray:none;stroke-opacity:1"
       d="M 901.07634,1111.4047 960,1152 l -67.83084,22.7816"
       id="path22"
       sodipodi:nodetypes="ccc" />
    <path
       style="fill:none;stroke:#1a8eff;stroke-width:8;stroke-linecap:round;stroke-linejoin:miter;stroke-dasharray:none;stroke-opacity:1"
       d="M 663.80905,924.52326 640,992 708.26715,970.5609"
       id="path23"
       sodipodi:nodetypes="ccc" />
    <path
       style="fill:none;stroke:#1a8eff;stroke-width:8;stroke-linecap:round;stroke-linejoin:miter;stroke-dasharray:none;stroke-opacity:1"
       d="M 973.78944,1010.9794 1024,960 l 10.6568,70.7565"
       id="path24"
       sodipodi:nodetypes="ccc" />
    <path
       style="fill:none;stroke:#1a8eff;stroke-width:8;stroke-linecap:round;stroke-linejoin:miter;stroke-dasharray:none;stroke-opacity:1"
       d="M 902.75615,1034.656 832,1024 882.97931,973.78871"
       id="path25"
       sodipodi:nodetypes="ccc" />
    <path
       style="fill:none;stroke:#1a8eff;stroke-width:8;stroke-linecap:round;stroke-linejoin:miter;stroke-dasharray:none;stroke-opacity:1"
       d="M 762.30566,935.32712 768,864 l 53.64512,47.35256"
       id="path27"
       sodipodi:nodetypes="ccc" />
    <path
       style="fill:none;stroke:#1a8eff;stroke-width:8;stroke-linecap:round;stroke-linejoin:miter;stroke-dasharray:none;stroke-opacity:1"
       d="M 1595.4156,1643.5996 1664,1664 l -57.4711,42.6272"
       id="path28"
       sodipodi:nodetypes="ccc" />
    <path
       style="fill:none;stroke:#1a8eff;stroke-width:8;stroke-linecap:round;stroke-linejoin:miter;stroke-dasharray:none;stroke-opacity:1"
       d="M 1179.7127,1656.5743 1184,1728 l -59.7129,-39.426"
       id="path30"
       sodipodi:nodetypes="ccc" />
    <path
       style="fill:none;stroke:#1a8eff;stroke-width:8;stroke-linecap:round;stroke-linejoin:miter;stroke-dasharray:none;stroke-opacity:1"
       d="M 1158.134,1553.8139 1088,1568 l 30.732,-64.6188"
       id="path31"
       sodipodi:nodetypes="ccc" />
    <path
       style="fill:none;stroke:#1a8eff;stroke-width:8;stroke-linecap:round;stroke-linejoin:miter;stroke-dasharray:none;stroke-opacity:1"
       d="M 1449.4856,1370.3004 1408,1312 l 71.532,1.7922"
       id="path32"
       sodipodi:nodetypes="ccc" />
    <path
       style="fill:none;stroke:#1a8eff;stroke-width:8;stroke-linecap:round;stroke-linejoin:miter;stroke-dasharray:none;stroke-opacity:1"
       d="M 1592.5744,1444.2874 1664,1440 l -39.4262,59.7131"
       id="path33"
       sodipodi:nodetypes="ccc" />
    <path
       style="fill:none;stroke:#1a8eff;stroke-width:8;stroke-linecap:round;stroke-linejoin:miter;stroke-dasharray:none;stroke-opacity:1"
       d="M 1532.4578,1601.6516 1504,1536 l 69.5965,16.6253"
       id="path34"
       sodipodi:nodetypes="ccc" />
    <path
       d="m 248.39844,264.69531 q 0,5.71875 -1.78125,10.54688 -1.78125,4.82812 -5.15625,8.29687 -3.375,3.46875 -8.0625,5.34375 -4.6875,1.82813 -10.54688,1.82813 -5.8125,0 -10.45312,-1.875 -4.64063,-1.875 -8.0625,-5.34375 -3.375,-3.51563 -5.15625,-8.25 -1.73438,-4.78125 -1.73438,-10.54688 0,-5.8125 1.78125,-10.64062 1.78125,-4.82813 5.10938,-8.25 3.32812,-3.42188 8.0625,-5.25 4.73437,-1.875 10.45312,-1.875 5.8125,0 10.54688,1.875 4.73437,1.875 8.10937,5.34375 3.375,3.46875 5.10938,8.25 1.78125,4.78125 1.78125,10.54687 z m -12.84375,0 q 0,-7.82812 -3.46875,-12.1875 -3.42188,-4.35937 -9.23438,-4.35937 -3.75,0 -6.60937,1.96875 -2.85938,1.92187 -4.40625,5.71875 -1.54688,3.79687 -1.54688,8.85937 0,5.01563 1.5,8.76563 1.54688,3.75 4.35938,5.76562 2.85937,1.96875 6.70312,1.96875 5.8125,0 9.23438,-4.35937 3.46875,-4.40625 3.46875,-12.14063 z m 56.15625,18.79688 v -1.64063 q -2.29688,2.90625 -4.82813,4.875 -2.53125,1.96875 -5.53125,2.90625 -3,0.98438 -6.84375,0.98438 -4.64062,0 -8.34375,-1.92188 -3.65625,-1.92187 -5.67187,-5.29687 -2.39063,-4.07813 -2.39063,-11.71875 v -25.35938 q 0,-3.84375 1.73438,-5.71875 1.73437,-1.92187 4.59375,-1.92187 2.90625,0 4.6875,1.92187 1.78125,1.92188 1.78125,5.71875 v 20.48438 q 0,4.45312 0.75,7.5 0.75,3 2.67187,4.73437 1.96875,1.6875 5.29688,1.6875 3.23437,0 6.09375,-1.92187 2.85937,-1.92188 4.17187,-5.01563 1.07813,-2.71875 1.07813,-11.90625 v -15.5625 q 0,-3.79687 1.78125,-5.71875 1.78125,-1.92187 4.64062,-1.92187 2.85938,0 4.59375,1.92187 1.73438,1.875 1.73438,5.71875 v 37.07813 q 0,3.65625 -1.6875,5.48437 -1.64063,1.82813 -4.26563,1.82813 -2.625,0 -4.35937,-1.875 -1.6875,-1.92188 -1.6875,-5.34375 z m 25.45312,-43.6875 h 1.40625 v -7.6875 q 0,-3.09375 0.14063,-4.82813 0.1875,-1.78125 0.9375,-3.04687 0.75,-1.3125 2.15625,-2.10938 1.40625,-0.84375 3.14062,-0.84375 2.4375,0 4.40625,1.82813 1.3125,1.21875 1.64063,3 0.375,1.73437 0.375,4.96875 v 8.71875 h 4.6875 q 2.71875,0 4.125,1.3125 1.45312,1.26562 1.45312,3.28125 0,2.57812 -2.0625,3.60937 -2.01562,1.03125 -5.8125,1.03125 h -2.39062 v 23.53125 q 0,3 0.1875,4.64063 0.23437,1.59375 1.125,2.625 0.9375,0.98437 3,0.98437 1.125,0 3.04687,-0.375 1.92188,-0.42187 3,-0.42187 1.54688,0 2.76563,1.26562 1.26562,1.21875 1.26562,3.04688 0,3.09375 -3.375,4.73437 -3.375,1.64063 -9.70312,1.64063 -6,0 -9.09375,-2.01563 -3.09375,-2.01562 -4.07813,-5.57812 -0.9375,-3.5625 -0.9375,-9.51563 v -24.5625 h -1.6875 q -2.76562,0 -4.21875,-1.3125 -1.45312,-1.3125 -1.45312,-3.32812 0,-2.01563 1.5,-3.28125 1.54687,-1.3125 4.45312,-1.3125 z m 69,28.03125 h -25.03125 q 0.0469,4.35937 1.73438,7.6875 1.73437,3.32812 4.54687,5.01562 2.85938,1.6875 6.28125,1.6875 2.29688,0 4.17188,-0.51562 1.92187,-0.5625 3.70312,-1.6875 1.78125,-1.17188 3.28125,-2.48438 1.5,-1.3125 3.89063,-3.5625 0.98437,-0.84375 2.8125,-0.84375 1.96875,0 3.1875,1.07813 1.21875,1.07812 1.21875,3.04687 0,1.73438 -1.35938,4.07813 -1.35937,2.29687 -4.125,4.45312 -2.71875,2.10938 -6.89062,3.51563 -4.125,1.40625 -9.51563,1.40625 -12.32812,0 -19.17187,-7.03125 -6.84375,-7.03125 -6.84375,-19.07813 0,-5.67187 1.6875,-10.5 1.6875,-4.875 4.92187,-8.34375 3.23438,-3.46875 7.96875,-5.29687 4.73438,-1.875 10.5,-1.875 7.5,0 12.84375,3.1875 5.39063,3.14062 8.0625,8.15625 2.67188,5.01562 2.67188,10.21875 0,4.82812 -2.76563,6.28125 -2.76562,1.40625 -7.78125,1.40625 z m -25.03125,-7.26563 h 23.20313 q -0.46875,-6.5625 -3.5625,-9.79687 -3.04688,-3.28125 -8.0625,-3.28125 -4.78125,0 -7.875,3.32812 -3.04688,3.28125 -3.70313,9.75 z m 59.0625,11.67188 v 10.6875 q 0,3.89062 -1.82812,5.85937 -1.82813,1.92188 -4.64063,1.92188 -2.76562,0 -4.54687,-1.96875 -1.78125,-1.96875 -1.78125,-5.8125 v -35.625 q 0,-8.625 6.23437,-8.625 3.1875,0 4.59375,2.01562 1.40625,2.01563 1.54688,5.95313 2.29687,-3.9375 4.6875,-5.95313 2.4375,-2.01562 6.46875,-2.01562 4.03125,0 7.82812,2.01562 3.79688,2.01563 3.79688,5.34375 0,2.34375 -1.64063,3.89063 -1.59375,1.5 -3.46875,1.5 -0.70312,0 -3.42187,-0.84375 -2.67188,-0.89063 -4.73438,-0.89063 -2.8125,0 -4.59375,1.5 -1.78125,1.45313 -2.76562,4.35938 -0.98438,2.90625 -1.35938,6.9375 -0.375,3.98437 -0.375,9.75 z"
       id="text34"
       style="font-size:96px;line-height:1.25;font-family:'Arial Rounded MT Bold';-inkscape-font-specification:'Arial Rounded MT Bold, ';word-spacing:0px;direction:rtl;fill:#ff3333;fill-opacity:1"
       aria-label="outer" />
    <path
       d="m 1655.75,246.48437 v 36.98438 q 0,3.84375 -1.8281,5.8125 -1.8281,1.96875 -4.6406,1.96875 -2.8125,0 -4.5938,-2.01563 -1.7344,-2.01562 -1.7344,-5.76562 v -36.60938 q 0,-3.79687 1.7344,-5.71875 1.7813,-1.92187 4.5938,-1.92187 2.8125,0 4.6406,1.92187 1.8281,1.92188 1.8281,5.34375 z m -6.3281,-13.21875 q -2.6719,0 -4.5938,-1.64062 -1.875,-1.64063 -1.875,-4.64063 0,-2.71875 1.9219,-4.45312 1.9688,-1.78125 4.5469,-1.78125 2.4844,0 4.4062,1.59375 1.9219,1.59375 1.9219,4.64062 0,2.95313 -1.875,4.64063 -1.875,1.64062 -4.4531,1.64062 z m 31.1719,13.03125 v 1.54688 q 3.375,-4.45313 7.3593,-6.51563 4.0313,-2.10937 9.2344,-2.10937 5.0625,0 9.0469,2.20312 3.9844,2.20313 5.9531,6.23438 1.2656,2.34375 1.6406,5.0625 0.375,2.71875 0.375,6.9375 v 23.8125 q 0,3.84375 -1.7812,5.8125 -1.7344,1.96875 -4.5469,1.96875 -2.8594,0 -4.6406,-2.01563 -1.7813,-2.01562 -1.7813,-5.76562 v -21.32813 q 0,-6.32812 -1.7812,-9.65625 -1.7344,-3.375 -6.9844,-3.375 -3.4219,0 -6.2344,2.0625 -2.8125,2.01563 -4.125,5.57813 -0.9375,2.85937 -0.9375,10.6875 v 16.03125 q 0,3.89062 -1.8281,5.85937 -1.7812,1.92188 -4.6406,1.92188 -2.7656,0 -4.5469,-2.01563 -1.7812,-2.01562 -1.7812,-5.76562 v -36.98438 q 0,-3.65625 1.5937,-5.4375 1.5938,-1.82812 4.3594,-1.82812 1.6875,0 3.0469,0.79687 1.3593,0.79688 2.1562,2.39063 0.8438,1.59375 0.8438,3.89062 z m 57.9843,0 v 1.54688 q 3.375,-4.45313 7.3594,-6.51563 4.0313,-2.10937 9.2344,-2.10937 5.0625,0 9.0469,2.20312 3.9843,2.20313 5.9531,6.23438 1.2656,2.34375 1.6406,5.0625 0.375,2.71875 0.375,6.9375 v 23.8125 q 0,3.84375 -1.7812,5.8125 -1.7344,1.96875 -4.5469,1.96875 -2.8594,0 -4.6406,-2.01563 -1.7813,-2.01562 -1.7813,-5.76562 v -21.32813 q 0,-6.32812 -1.7812,-9.65625 -1.7344,-3.375 -6.9844,-3.375 -3.4219,0 -6.2344,2.0625 -2.8125,2.01563 -4.125,5.57813 -0.9375,2.85937 -0.9375,10.6875 v 16.03125 q 0,3.89062 -1.8281,5.85937 -1.7813,1.92188 -4.6406,1.92188 -2.7657,0 -4.5469,-2.01563 -1.7813,-2.01562 -1.7813,-5.76562 v -36.98438 q 0,-3.65625 1.5938,-5.4375 1.5937,-1.82812 4.3594,-1.82812 1.6875,0 3.0468,0.79687 1.3594,0.79688 2.1563,2.39063 0.8437,1.59375 0.8437,3.89062 z m 82.0782,22.07813 h -25.0313 q 0.047,4.35937 1.7344,7.6875 1.7344,3.32812 4.5469,5.01562 2.8593,1.6875 6.2812,1.6875 2.2969,0 4.1719,-0.51562 1.9219,-0.5625 3.7031,-1.6875 1.7813,-1.17188 3.2813,-2.48438 1.5,-1.3125 3.8906,-3.5625 0.9844,-0.84375 2.8125,-0.84375 1.9687,0 3.1875,1.07813 1.2187,1.07812 1.2187,3.04687 0,1.73438 -1.3593,4.07813 -1.3594,2.29687 -4.125,4.45312 -2.7188,2.10938 -6.8907,3.51563 -4.125,1.40625 -9.5156,1.40625 -12.3281,0 -19.1719,-7.03125 -6.8437,-7.03125 -6.8437,-19.07813 0,-5.67187 1.6875,-10.5 1.6875,-4.875 4.9219,-8.34375 3.2343,-3.46875 7.9687,-5.29687 4.7344,-1.875 10.5,-1.875 7.5,0 12.8438,3.1875 5.3906,3.14062 8.0625,8.15625 2.6718,5.01562 2.6718,10.21875 0,4.82812 -2.7656,6.28125 -2.7656,1.40625 -7.7812,1.40625 z m -25.0313,-7.26563 h 23.2031 q -0.4687,-6.5625 -3.5625,-9.79687 -3.0468,-3.28125 -8.0625,-3.28125 -4.7812,0 -7.875,3.32812 -3.0468,3.28125 -3.7031,9.75 z m 59.0625,11.67188 v 10.6875 q 0,3.89062 -1.8281,5.85937 -1.8281,1.92188 -4.6406,1.92188 -2.7657,0 -4.5469,-1.96875 -1.7813,-1.96875 -1.7813,-5.8125 v -35.625 q 0,-8.625 6.2344,-8.625 3.1875,0 4.5938,2.01562 1.4062,2.01563 1.5468,5.95313 2.2969,-3.9375 4.6875,-5.95313 2.4375,-2.01562 6.4688,-2.01562 4.0312,0 7.8281,2.01562 3.7969,2.01563 3.7969,5.34375 0,2.34375 -1.6406,3.89063 -1.5938,1.5 -3.4688,1.5 -0.7031,0 -3.4219,-0.84375 -2.6718,-0.89063 -4.7343,-0.89063 -2.8125,0 -4.5938,1.5 -1.7812,1.45313 -2.7656,4.35938 -0.9844,2.90625 -1.3594,6.9375 -0.375,3.98437 -0.375,9.75 z"
       id="text35"
       style="font-size:96px;line-height:1.25;font-family:'Arial Rounded MT Bold';-inkscape-font-specification:'Arial Rounded MT Bold, ';word-spacing:0px;direction:rtl;fill:#1a8eff;fill-opacity:1"
       aria-label="inner" />
    <path
       id="path1"
       style="fill:none;fill-opacity:0.196078;stroke:#ff3333;stroke-width:8;stroke-linecap:butt;stroke-linejoin:round;stroke-dasharray:none;stroke-opacity:1"
       d="m 1056,256 -928,224 32,979.6738 672,448 992,-160 -128,-1279.99997 z"
       sodipodi:nodetypes="ccccccc" />
    <path
       id="path2"
       style="fill:none;fill-opacity:0.196078;stroke:#ff3333;stroke-width:8;stroke-linecap:butt;stroke-linejoin:round;stroke-dasharray:none;stroke-opacity:1"
       d="M 544,736 445.10156,1030.7832 512,1280 l 384,64 288,-320 -160,-288 z"
       sodipodi:nodetypes="ccccccc" />
    <path
       style="fill:none;stroke:#1a8eff;stroke-width:8;stroke-linecap:butt;stroke-linejoin:round;stroke-opacity:1;stroke-dasharray:none"
       d="M 1184,608 H 352 l -32,736 288,224 480,-128 288,-416 z"
       id="path36" />
    <path
       style="fill:none;stroke:#1a8eff;stroke-width:8;stroke-linecap:round;stroke-linejoin:round;stroke-opacity:1;stroke-dasharray:none"
       d="m 640,992 96,128 224,32 64,-192 -192,64 -64,-160 z"
       id="path37" />
    <path
       style="fill:none;stroke:#1a8eff;stroke-width:8;stroke-linecap:round;stroke-linejoin:round;stroke-opacity:1;stroke-dasharray:none"
       d="m 1088,1568 96,160 480,-64 -160,-128 160,-96 -256,-128 z"
       id="path38" />
    <path
       style="fill:none;stroke:#ff3333;stroke-width:8;stroke-linecap:round;stroke-linejoin:miter;stroke-opacity:1;stroke-dasharray:none"
       d="M 448,320 H 192"
       id="path39" />
    <circle
       style="fill:#ff3333;fill-opacity:1;stroke:none;stroke-width:8;stroke-linecap:round;stroke-linejoin:round;stroke-miterlimit:16;stroke-dasharray:none;stroke-opacity:1"
       id="path40"
       cx="192"
       cy="320"
       r="16" />
    <path
       style="fill:#1a8eff;stroke:#1a8eff;stroke-width:8;stroke-linecap:round;stroke-linejoin:miter;stroke-dasharray:none;stroke-opacity:1;fill-opacity:1"
       d="M 1888,320 H 1632"
       id="path41" />
    <circle
       style="fill:#1a8eff;fill-opacity:1;stroke:none;stroke-width:8;stroke-linecap:round;stroke-linejoin:round;stroke-miterlimit:16;stroke-dasharray:none;stroke-opacity:1"
       id="circle41"
       cx="1632"
       cy="320"
       r="16" />
  </g>
</svg>
