<?xml version="1.0" encoding="UTF-8" standalone="no"?>
<svg
   id="svg8"
   version="1.1"
   viewBox="0 0 135.46667 135.46667"
   height="512"
   width="512"
   sodipodi:docname="delaunay_condition.svg"
   inkscape:version="1.3 (0e150ed, 2023-07-21)"
   xmlns:inkscape="http://www.inkscape.org/namespaces/inkscape"
   xmlns:sodipodi="http://sodipodi.sourceforge.net/DTD/sodipodi-0.dtd"
   xmlns="http://www.w3.org/2000/svg"
   xmlns:svg="http://www.w3.org/2000/svg"
   xmlns:rdf="http://www.w3.org/1999/02/22-rdf-syntax-ns#"
   xmlns:cc="http://creativecommons.org/ns#"
   xmlns:dc="http://purl.org/dc/elements/1.1/">
  <sodipodi:namedview
     pagecolor="#ffffff"
     bordercolor="#666666"
     inkscape:document-rotation="0"
     borderopacity="1"
     objecttolerance="10"
     gridtolerance="10"
     guidetolerance="10"
     inkscape:pageopacity="0"
     inkscape:pageshadow="2"
     inkscape:window-width="1888"
     inkscape:window-height="1375"
     id="namedview903"
     showgrid="true"
     units="in"
     fit-margin-top="0"
     fit-margin-left="0"
     fit-margin-right="0"
     fit-margin-bottom="0"
     inkscape:zoom="3.5673241"
     inkscape:cx="321.80984"
     inkscape:cy="316.76404"
     inkscape:window-x="610"
     inkscape:window-y="44"
     inkscape:window-maximized="0"
     inkscape:current-layer="svg8"
     inkscape:showpageshadow="2"
     inkscape:pagecheckerboard="0"
     inkscape:deskcolor="#d1d1d1"
     inkscape:document-units="in">
    <inkscape:grid
       id="grid1"
       units="px"
       originx="0"
       originy="0"
       spacingx="8.4666669"
       spacingy="8.4666669"
       empcolor="#0099e5"
       empopacity="0.30196078"
       color="#0099e5"
       opacity="0.14901961"
       empspacing="5"
       dotted="false"
       gridanglex="30"
       gridanglez="30"
       visible="true" />
  </sodipodi:namedview>
  <defs
     id="defs2" />
  <metadata
     id="metadata5">
    <rdf:RDF>
      <cc:Work
         rdf:about="">
        <dc:format>image/svg+xml</dc:format>
        <dc:type
           rdf:resource="http://purl.org/dc/dcmitype/StillImage" />
      </cc:Work>
    </rdf:RDF>
  </metadata>
  <path
     style="fill:none;stroke:#666666;stroke-width:0.529167;stroke-linecap:round;stroke-linejoin:miter;stroke-dasharray:3.175, 2.11667;stroke-dashoffset:0;stroke-opacity:0.5"
     d="m 0,105.3829 32.783974,21.96463"
     id="path37"
     sodipodi:nodetypes="cc" />
  <path
     id="path3"
     style="fill:#ff7400;fill-opacity:1;stroke:none;stroke-width:1.5875;stroke-linecap:butt;stroke-linejoin:round;stroke-dasharray:none;stroke-opacity:1;opacity:0.1"
     d="M 71.616302 17.082162 L 17.631999 59.336431 L 32.784046 127.34779 L 116.12625 83.185622 L 71.616302 17.082162 z " />
  <path
     style="fill:none;stroke:#666666;stroke-width:0.529167;stroke-linecap:round;stroke-linejoin:miter;stroke-dasharray:3.175, 2.11667;stroke-dashoffset:0;stroke-opacity:0.5"
     d="M 71.617667,17.082056 135.46667,16.933334"
     id="path13"
     sodipodi:nodetypes="cc" />
  <path
     style="fill:none;stroke:#9955ff;stroke-width:0.529167;stroke-linecap:round;stroke-linejoin:round;stroke-miterlimit:16;stroke-dasharray:none;stroke-dashoffset:0;stroke-opacity:1;paint-order:stroke fill markers"
     id="path12"
     sodipodi:type="arc"
     sodipodi:cx="32.783974"
     sodipodi:cy="127.34753"
     sodipodi:rx="7.4083333"
     sodipodi:ry="7.4083333"
     sodipodi:start="4.4986903"
     sodipodi:end="5.7885466"
     sodipodi:arc-type="arc"
     d="m 31.212845,120.10771 a 7.4083333,7.4083333 0 0 1 8.091501,3.72298"
     sodipodi:open="true" />
  <path
     style="fill:none;stroke:#9955ff;stroke-width:0.529167;stroke-linecap:round;stroke-linejoin:round;stroke-miterlimit:16;stroke-dasharray:none;stroke-dashoffset:0;stroke-opacity:1;paint-order:stroke fill markers"
     id="path11"
     sodipodi:type="arc"
     sodipodi:cx="71.454308"
     sodipodi:cy="17.082056"
     sodipodi:rx="7.4083333"
     sodipodi:ry="7.4083333"
     sodipodi:start="0.96658074"
     sodipodi:end="2.4537235"
     sodipodi:arc-type="arc"
     d="M 75.663106,23.178729 A 7.4083333,7.4083333 0 0 1 65.730625,21.78555"
     sodipodi:open="true" />
  <path
     style="fill:none;stroke:#666666;stroke-width:0.529167;stroke-linecap:round;stroke-linejoin:miter;stroke-dasharray:3.175, 2.11667;stroke-dashoffset:0;stroke-opacity:0.5"
     d="m 116.12613,83.185788 -6.05946,52.280882"
     id="path8"
     sodipodi:nodetypes="cc" />
  <path
     style="fill:none;stroke:#666666;stroke-width:0.52916668;stroke-linecap:round;stroke-linejoin:miter;stroke-dasharray:3.17500019, 2.11666679;stroke-opacity:0.5;stroke-dashoffset:0"
     d="M 0,67.733337 17.632159,59.336182 8.4409816,0"
     id="path5"
     sodipodi:nodetypes="ccc" />
  <path
     style="fill:none;stroke:#666666;stroke-width:0.529167;stroke-linecap:round;stroke-linejoin:miter;stroke-dasharray:3.175, 2.11667;stroke-dashoffset:0;stroke-opacity:0.5"
     d="M 16.933334,0 71.617667,17.082056 76.200005,0"
     id="path6"
     sodipodi:nodetypes="ccc" />
  <path
     style="fill:none;stroke:#666666;stroke-width:0.529167;stroke-linecap:round;stroke-linejoin:miter;stroke-dasharray:3.175, 2.11667;stroke-dashoffset:0;stroke-opacity:0.5"
     d="m 135.46667,33.866669 -19.34054,49.319119 19.34054,9.831686"
     id="path7"
     sodipodi:nodetypes="ccc" />
  <path
     style="fill:none;stroke:#666666;stroke-width:0.529167;stroke-linecap:round;stroke-linejoin:miter;stroke-dasharray:3.175, 2.11667;stroke-dashoffset:0;stroke-opacity:0.5"
     d="m 59.766256,135.46667 -26.982282,-8.11914 -7.383972,8.11914"
     id="path9"
     sodipodi:nodetypes="ccc" />
  <circle
     style="fill:none;stroke:#ff7f2a;stroke-width:0.52916668;stroke-linecap:round;stroke-linejoin:round;stroke-miterlimit:16;stroke-dasharray:3.17500019, 2.11666679;stroke-dashoffset:0;stroke-opacity:0.50196081;paint-order:stroke fill markers"
     id="path2"
     cx="67.733337"
     cy="67.733337"
     r="50.800003" />
  <path
     d="m 38.126141,113.20498 c -0.04515,0.27093 -0.07902,0.53057 -0.1016,0.94826 h -0.04516 c -0.270933,-0.66604 -0.857956,-1.06115 -1.614312,-1.06115 -1.219202,0 -2.325514,1.1176 -2.325514,2.83351 0,1.58045 0.880534,2.60774 2.122314,2.60774 0.846667,0 1.444979,-0.48543 1.794935,-1.1176 h 0.02258 c 0.05644,0.82409 0.428979,1.1176 0.869246,1.1176 0.1016,0 0.225778,0 0.3048,-0.0339 l 0.06773,-0.63218 c -0.383823,0 -0.51929,-0.28222 -0.51929,-0.89182 0,-1.43369 0.09031,-3.2512 0.135467,-3.77049 z m -3.206048,2.69804 c 0,-1.23049 0.632179,-2.12231 1.535291,-2.12231 0.72249,0 1.264357,0.65476 1.388535,1.36596 0.03387,0.19191 0.03387,0.37253 0.03387,0.57573 0,0.3048 0,0.508 -0.05644,0.76765 -0.169334,0.69991 -0.756356,1.35466 -1.456268,1.35466 -0.92569,0 -1.44498,-0.94826 -1.44498,-1.9304 z"
     id="text10"
     style="font-size:11.2889px;line-height:1.25;font-family:'.Apple SD Gothic NeoI';-inkscape-font-specification:'.Apple SD Gothic NeoI';word-spacing:0px;direction:rtl;fill:#9955ff;stroke-width:0.264583;fill-opacity:1"
     aria-label="α" />
  <path
     d="m 68.392339,36.186538 c 0.395112,0.428979 0.936979,0.677335 1.682046,0.677335 1.12889,0 2.235202,-0.778935 2.235202,-2.223914 0,-1.23049 -0.778934,-1.907824 -1.603023,-2.065869 v -0.05644 c 0.496711,-0.225778 0.970845,-0.835379 0.970845,-1.670757 0,-1.12889 -0.82409,-1.873958 -1.85138,-1.873958 -0.677334,0 -1.140179,0.225778 -1.512712,0.553156 -0.406401,0.406401 -0.790223,1.049868 -0.790223,2.540003 v 4.978405 c 0,0.767645 0.02258,1.377246 0.146755,1.715913 h 0.812801 c -0.1016,-0.428978 -0.112889,-1.241779 -0.112889,-1.828802 v -0.745068 z m -0.02258,-4.210759 c 0,-1.512713 0.462845,-2.302936 1.365957,-2.302936 0.654756,0 1.140179,0.508 1.140179,1.286935 0,0.7112 -0.428978,1.377245 -1.264357,1.422401 -0.06773,0.01129 -0.135467,0.01129 -0.191911,0.01129 v 0.609601 h 0.282222 c 1.004713,0.03387 1.738491,0.575734 1.738491,1.63689 0,0.880534 -0.632178,1.557868 -1.512713,1.557868 -0.778934,0 -1.33209,-0.496711 -1.557868,-0.891823 z"
     id="text11"
     style="font-size:11.2889px;line-height:1.25;font-family:'.Apple SD Gothic NeoI';-inkscape-font-specification:'.Apple SD Gothic NeoI';word-spacing:0px;direction:rtl;fill:#9955ff;stroke-width:0.264583;fill-opacity:1"
     aria-label="β" />
  <text
     xml:space="preserve"
     style="font-size:11.2889px;line-height:1.25;font-family:'.Apple SD Gothic NeoI';-inkscape-font-specification:'.Apple SD Gothic NeoI';word-spacing:0px;direction:rtl;stroke-width:0.264583"
     x="14.186578"
     y="93.488686"
     id="text18"><tspan
       sodipodi:role="line"
       id="tspan18"
       style="font-size:11.2889px;stroke-width:0.264583"
       x="14.186578"
       y="93.488686" /></text>
  <path
     d="m 14.596533,88.820987 c 0.756356,0 1.23049,-0.270934 1.490135,-0.587023 h 0.05644 l 0.09031,0.485423 h 0.699911 v -4.052715 c 0,-1.140179 -0.688623,-1.64818 -1.919113,-1.64818 -0.643467,0 -1.185334,0.1016 -1.670757,0.3048 v 0.62089 c 0.349956,-0.1016 0.790223,-0.180623 1.33209,-0.180623 1.004712,0 1.388535,0.225779 1.388535,1.095024 v 0.587023 l -1.512713,0.180622 c -1.072445,0.124178 -1.704624,0.643467 -1.704624,1.625602 0,1.049867 0.733779,1.569157 1.749781,1.569157 z m 0.214489,-0.677334 c -0.643468,0 -1.061157,-0.3048 -1.061157,-0.914401 0,-0.643467 0.338667,-0.92569 1.02729,-0.993423 l 1.286935,-0.146756 v 1.648179 c -0.237067,0.237067 -0.733779,0.406401 -1.253068,0.406401 z"
     id="text20"
     style="font-size:11.2889px;line-height:1.25;font-family:'.Apple SD Gothic NeoI';-inkscape-font-specification:'.Apple SD Gothic NeoI';word-spacing:0px;direction:rtl;fill:#ff7400;fill-opacity:1;stroke-width:0.264583"
     aria-label="a" />
  <path
     style="fill:#0055d4;fill-opacity:1;stroke:#ff7400;stroke-width:0.79375;stroke-linecap:round;stroke-linejoin:miter;stroke-dasharray:none;stroke-opacity:1"
     d="m 13.501493,81.256018 h 3.175"
     id="path23"
     sodipodi:nodetypes="cc" />
  <path
     d="m 39.581711,35.166768 c 0.778934,0 1.275645,-0.225778 1.636889,-0.440266 V 34.02659 c -0.282222,0.158045 -0.778933,0.395112 -1.535289,0.395112 -1.196622,0 -1.794933,-0.643467 -1.794933,-2.077156 v -0.270933 c 0,-1.286934 0.666044,-1.975556 1.682044,-1.975556 0.733778,0 1.095023,0.135467 1.591734,0.361245 v -0.722489 c -0.372534,-0.237067 -0.8128,-0.372534 -1.546578,-0.372534 -1.444978,0 -2.619022,0.857956 -2.619022,2.8448 v 0.169334 c 0,1.840089 0.982133,2.788355 2.585155,2.788355 z"
     id="text22"
     style="font-size:11.2889px;line-height:1.25;font-family:'.Apple SD Gothic NeoI';-inkscape-font-specification:'.Apple SD Gothic NeoI';word-spacing:0px;direction:rtl;fill:#ff7400;fill-opacity:1;stroke-width:0.264583"
     aria-label="c" />
  <path
     style="fill:#0055d4;fill-opacity:1;stroke:#ff7400;stroke-width:0.79375;stroke-linecap:round;stroke-linejoin:miter;stroke-dasharray:none;stroke-opacity:1"
     d="m 37.633659,27.601799 h 3.175002"
     id="path26"
     sodipodi:nodetypes="cc" />
  <path
     d="m 85.840714,112.89454 c 1.806224,0 2.788358,-1.06115 2.788358,-2.93511 v -0.14676 c 0,-2.09973 -1.106312,-2.7432 -2.178757,-2.7432 -0.767646,0 -1.298224,0.21449 -1.727202,0.47413 h -0.05645 v -2.85609 h -0.869245 v 7.90223 c 0.496712,0.19191 1.388535,0.3048 2.043291,0.3048 z m 0.04516,-0.72249 c -0.564445,0 -0.959557,-0.0903 -1.219202,-0.2032 v -3.80436 c 0.293512,-0.13546 0.812801,-0.36124 1.388535,-0.36124 1.12889,0 1.670757,0.508 1.670757,2.06587 v 0.22578 c 0,1.60302 -0.835378,2.07715 -1.84009,2.07715 z"
     id="text21"
     style="font-size:11.2889px;line-height:1.25;font-family:'.Apple SD Gothic NeoI';-inkscape-font-specification:'.Apple SD Gothic NeoI';word-spacing:0px;direction:rtl;fill:#ff7400;fill-opacity:1;stroke-width:0.264583"
     aria-label="b" />
  <path
     style="fill:#0055d4;fill-opacity:1;stroke:#ff7400;stroke-width:0.79375;stroke-linecap:round;stroke-linejoin:miter;stroke-dasharray:none;stroke-opacity:1"
     d="m 84.363264,103.14575 h 3.175002"
     id="path27"
     sodipodi:nodetypes="cc" />
  <path
     d="m 97.852517,47.912882 c 0.756356,0 1.298223,-0.237067 1.63689,-0.564445 h 0.04516 l 0.1016,0.462845 h 0.722493 v -8.082853 h -0.869249 v 2.754492 c -0.3048,-0.180623 -0.778934,-0.372534 -1.467557,-0.372534 -1.444979,0 -2.494847,0.880534 -2.494847,2.912536 v 0.146756 c 0,2.065869 1.207913,2.743203 2.325514,2.743203 z m 0.259644,-0.711201 c -1.004712,0 -1.682046,-0.496711 -1.682046,-2.065869 v -0.225778 c 0,-1.512712 0.643468,-2.065868 1.704624,-2.065868 0.575734,0 1.095024,0.158044 1.354668,0.361244 v 3.522137 c -0.282222,0.225778 -0.722489,0.474134 -1.377246,0.474134 z"
     id="text23"
     style="font-size:11.2889px;line-height:1.25;font-family:'.Apple SD Gothic NeoI';-inkscape-font-specification:'.Apple SD Gothic NeoI';word-spacing:0px;direction:rtl;fill:#ff7400;fill-opacity:1;stroke-width:0.264583"
     aria-label="d" />
  <path
     style="fill:#0055d4;fill-opacity:1;stroke:#ff7400;stroke-width:0.79375;stroke-linecap:round;stroke-linejoin:miter;stroke-dasharray:none;stroke-opacity:1"
     d="m 96.420232,38.231245 h 3.175002"
     id="path28"
     sodipodi:nodetypes="cc" />
  <g
     id="text31"
     style="font-size:11.2889px;line-height:1.25;font-family:'.Apple SD Gothic NeoI';-inkscape-font-specification:'.Apple SD Gothic NeoI';word-spacing:0px;direction:rtl;fill:#ff7400;stroke-width:0.264583;fill-opacity:1"
     aria-label="P0">
    <path
       d="m 20.724142,131.44535 h 0.903112 v -3.03672 h 1.546579 c 1.444979,0 2.415825,-0.8128 2.415825,-2.30293 0,-1.42241 -0.82409,-2.23521 -2.528714,-2.23521 h -2.336802 z m 0.903112,-3.78179 v -3.03671 h 1.343379 c 1.23049,0 1.659468,0.46284 1.659468,1.53529 0,1.016 -0.462845,1.50142 -1.63689,1.50142 z"
       id="path47"
       style="fill:#ff7400;fill-opacity:1" />
    <path
       style="font-size:65%;baseline-shift:sub;fill:#ff7400;fill-opacity:1"
       d="m 28.314793,133.95713 c 0.997938,0 1.761068,-0.68242 1.761068,-2.3481 v -0.4476 c 0,-1.7097 -0.792481,-2.29673 -1.753731,-2.29673 -0.968587,0 -1.812432,0.58703 -1.812432,2.32608 v 0.41092 c 0,1.66567 0.79248,2.35543 1.805095,2.35543 z m 0,-0.4843 c -0.770468,0 -1.181384,-0.58702 -1.181384,-1.81243 v -0.543 c 0,-1.23274 0.418254,-1.7684 1.188721,-1.7684 0.755792,0 1.15937,0.56501 1.15937,1.80509 v 0.543 c 0,1.2621 -0.410916,1.77574 -1.166707,1.77574 z"
       id="path48" />
  </g>
  <g
     id="text34"
     style="font-size:11.2889px;line-height:1.25;font-family:'.Apple SD Gothic NeoI';-inkscape-font-specification:'.Apple SD Gothic NeoI';word-spacing:0px;direction:rtl;fill:#ff7400;stroke-width:0.264583;fill-opacity:1"
     aria-label="P1">
    <path
       d="m 7.7404943,56.597274 h 0.903112 v -3.036715 h 1.5465797 c 1.444979,0 2.415824,-0.812801 2.415824,-2.302935 0,-1.422402 -0.824089,-2.235203 -2.528713,-2.235203 H 7.7404943 Z m 0.903112,-3.781782 v -3.036714 h 1.3433791 c 1.2304906,0 1.6594686,0.462845 1.6594686,1.53529 0,1.016001 -0.462845,1.501424 -1.636891,1.501424 z"
       id="path43"
       style="fill:#ff7400;fill-opacity:1" />
    <path
       style="font-size:65%;baseline-shift:sub;fill:#ff7400;fill-opacity:1"
       d="m 14.325869,59.050352 h 0.557671 v -5.033721 h -0.308187 l -1.15937,0.542996 v 0.337538 l 0.909886,-0.212795 z"
       id="path44" />
  </g>
  <g
     id="text36"
     style="font-size:11.2889px;line-height:1.25;font-family:'.Apple SD Gothic NeoI';-inkscape-font-specification:'.Apple SD Gothic NeoI';word-spacing:0px;direction:rtl;fill:#ff7400;stroke-width:0.264583;fill-opacity:1"
     aria-label="P2">
    <path
       d="m 70.628107,11.578964 h 0.903112 V 8.5422497 h 1.54658 c 1.444979,0 2.415824,-0.8128008 2.415824,-2.3029357 0,-1.4224014 -0.824089,-2.2352022 -2.528713,-2.2352022 H 70.628107 Z M 71.531219,7.7971823 V 4.7604681 h 1.34338 c 1.23049,0 1.659468,0.4628449 1.659468,1.5352904 0,1.0160011 -0.462845,1.5014238 -1.636891,1.5014238 z"
       id="path41"
       style="fill:#ff7400;fill-opacity:1" />
    <path
       style="font-size:65%;baseline-shift:sub;fill:#ff7400;fill-opacity:1"
       d="m 76.354961,14.002691 h 3.059856 v -0.49897 h -2.245362 l 0.770467,-0.777805 c 0.851184,-0.865858 1.364828,-1.452881 1.364828,-2.304064 0,-0.8805343 -0.535658,-1.4308682 -1.526259,-1.4308682 -0.557671,0 -1.056641,0.2494847 -1.364828,0.4476049 l 0.168769,0.4622805 C 76.868606,9.702749 77.264846,9.497291 77.6831,9.497291 c 0.69709,0 1.012614,0.3228625 1.012614,0.975925 0,0.704428 -0.469618,1.240086 -1.166707,1.966527 l -1.174046,1.218072 z"
       id="path42" />
  </g>
  <g
     id="text38"
     style="font-size:11.2889px;line-height:1.25;font-family:'.Apple SD Gothic NeoI';-inkscape-font-specification:'.Apple SD Gothic NeoI';word-spacing:0px;direction:rtl;fill:#ff7400;stroke-width:0.264583;fill-opacity:1"
     aria-label="P3">
    <path
       d="m 119.2231,84.648196 h 0.90311 v -3.036714 h 1.54658 c 1.44498,0 2.41582,-0.812801 2.41582,-2.302936 0,-1.422401 -0.82409,-2.235202 -2.52871,-2.235202 h -2.3368 z m 0.90311,-3.781782 V 77.8297 h 1.34338 c 1.23049,0 1.65947,0.462845 1.65947,1.535291 0,1.016001 -0.46285,1.501423 -1.63689,1.501423 z"
       id="path45"
       style="fill:#ff7400;fill-opacity:1" />
    <path
       style="font-size:65%;baseline-shift:sub;fill:#ff7400;fill-opacity:1"
       d="m 126.20471,87.145301 c 1.09333,0 1.79042,-0.601699 1.79042,-1.460219 0,-0.76313 -0.48429,-1.122682 -1.12268,-1.247424 0.55767,-0.183445 0.93924,-0.542996 0.93924,-1.152032 0,-0.770468 -0.6017,-1.218072 -1.48224,-1.218072 -0.42559,0 -1.00527,0.183444 -1.29878,0.381564 l 0.088,0.469619 c 0.30819,-0.176107 0.68975,-0.352214 1.09333,-0.352214 0.6017,0 0.9906,0.212796 0.9906,0.814494 0,0.550334 -0.43293,0.873196 -1.07132,0.873196 h -0.44026 v 0.49897 h 0.47695 c 0.74846,0 1.23275,0.300849 1.23275,0.931899 0,0.609036 -0.45494,0.968587 -1.26944,0.968587 -0.36689,0 -0.85852,-0.139418 -1.13735,-0.322862 l -0.12475,0.46228 c 0.2715,0.190782 0.76313,0.352214 1.33548,0.352214 z"
       id="path46" />
  </g>
  <g
     id="path1">
    <path
       style="color:#000000;fill:#ff7400;stroke-linejoin:bevel;-inkscape-stroke:none"
       d="M 71.451172,16.871094 18.404297,58.392578 18.732422,58.8125 71.554687,17.46875 115.23242,82.335937 115.67383,82.037109 71.837891,16.933594 Z"
       id="path40" />
    <g
       id="g38">
      <path
         style="color:#000000;fill:#ff7400;fill-rule:evenodd;-inkscape-stroke:none"
         d="m 20.249053,57.287902 0.228168,-1.872 -2.853379,3.926789 4.497211,-1.826621 z"
         id="path39" />
      <path
         style="color:#000000;fill:#ff7400;fill-rule:evenodd;-inkscape-stroke:none"
         d="m 114.26156,80.416275 -1.85091,-0.361333 3.71289,3.126641 -1.50064,-4.616223 z"
         id="path38" />
    </g>
  </g>
  <g
     id="path34">
    <path
       style="color:#000000;fill:#ff7400;-inkscape-stroke:none"
       d="m 18.146484,60.429687 -0.515625,0.115235 15.042969,67.160158 82.525392,-43.728518 -0.24609,-0.46875 -81.916021,43.406248 z"
       id="path51" />
    <g
       id="g41">
      <path
         style="color:#000000;fill:#ff7400;fill-rule:evenodd;-inkscape-stroke:none"
         d="m 113.20589,84.733177 -0.54954,1.788359 3.47191,-3.336881 -4.71073,0.998981 z"
         id="path50" />
      <path
         style="color:#000000;fill:#ff7400;fill-rule:evenodd;-inkscape-stroke:none"
         d="m 18.351258,62.552872 1.580076,1.001788 -2.302937,-4.229119 -0.278928,4.807407 z"
         id="path49" />
    </g>
  </g>
  <path
     style="fill:none;fill-opacity:0.05;stroke:#ff7400;stroke-width:0.529167;stroke-linecap:round;stroke-linejoin:miter;stroke-dasharray:3.175, 2.11667;stroke-dashoffset:0;stroke-opacity:1"
     d="M 18.945893,59.807657 114.7492,82.835721"
     id="path36"
     sodipodi:nodetypes="cc" />
</svg>
