<?xml version="1.0" encoding="UTF-8" standalone="no"?>
<!-- Created with Inkscape (http://www.inkscape.org/) -->

<svg
   width="1536"
   height="512"
   viewBox="0 0 1536 512"
   version="1.1"
   id="svg5"
   inkscape:version="1.3.2 (091e20e, 2023-11-25)"
   sodipodi:docname="even-odd.svg"
   xmlns:inkscape="http://www.inkscape.org/namespaces/inkscape"
   xmlns:sodipodi="http://sodipodi.sourceforge.net/DTD/sodipodi-0.dtd"
   xmlns="http://www.w3.org/2000/svg"
   xmlns:svg="http://www.w3.org/2000/svg">
  <sodipodi:namedview
     id="namedview7"
     pagecolor="#ffffff"
     bordercolor="#666666"
     borderopacity="1.0"
     inkscape:showpageshadow="2"
     inkscape:pageopacity="0.0"
     inkscape:pagecheckerboard="true"
     inkscape:deskcolor="#d1d1d1"
     inkscape:document-units="px"
     showgrid="true"
     inkscape:zoom="0.44456071"
     inkscape:cx="591.59524"
     inkscape:cy="159.70822"
     inkscape:window-width="1792"
     inkscape:window-height="965"
     inkscape:window-x="164"
     inkscape:window-y="224"
     inkscape:window-maximized="0"
     inkscape:current-layer="layer1">
    <inkscape:grid
       id="grid7"
       units="px"
       originx="0"
       originy="0"
       spacingx="8"
       spacingy="8"
       empcolor="#0099e5"
       empopacity="0.30196078"
       color="#0099e5"
       opacity="0.14901961"
       empspacing="5"
       dotted="false"
       gridanglex="30"
       gridanglez="30"
       visible="true"
       enabled="true" />
  </sodipodi:namedview>
  <defs
     id="defs2" />
  <g
     inkscape:label="Layer 1"
     inkscape:groupmode="layer"
     id="layer1">
    <rect
       style="fill:#ffffff;fill-opacity:0.97;stroke:none;stroke-width:2;stroke-linecap:round;stroke-linejoin:round;stroke-miterlimit:16;paint-order:fill markers stroke"
       id="rect1"
       width="1536"
       height="512"
       x="0"
       y="0" />
    <path
       id="rect2"
       style="fill:#aaccff;stroke:#002255;stroke-width:1;stroke-linecap:round;stroke-linejoin:round;stroke-miterlimit:16;stroke-dasharray:none;stroke-opacity:1;paint-order:fill markers stroke;fill-opacity:1"
       d="M 96,64 V 448 H 480 V 64 Z m 96,96 H 384 V 352 H 192 Z" />
    <path
       id="rect3"
       style="fill:#aaccff;stroke:#002255;stroke-width:1;stroke-linecap:round;stroke-linejoin:round;stroke-miterlimit:16;stroke-dasharray:none;stroke-opacity:1;paint-order:fill markers stroke;fill-opacity:1"
       d="M 576 64 L 576 448 L 960 448 L 960 64 L 576 64 z M 672 160 L 864 160 L 864 352 L 672 352 L 672 160 z " />
    <path
       id="rect4"
       style="fill:#aaccff;stroke:#002255;stroke-width:1;stroke-linecap:round;stroke-linejoin:round;stroke-miterlimit:16;stroke-dasharray:none;stroke-opacity:1;paint-order:fill markers stroke;fill-opacity:0.98582995"
       d="M 1056 64 L 1056 448 L 1440 448 L 1440 64 L 1056 64 z M 1152 160 L 1344 160 L 1344 352 L 1152 352 L 1152 160 z " />
    <path
       style="fill:#d7f4d7;stroke:#217821;stroke-width:2;stroke-linecap:butt;stroke-linejoin:miter;stroke-dasharray:none;stroke-opacity:1;paint-order:fill markers stroke"
       d="m 96,184 -8.231134,24 h 16.294764 z"
       id="path7"
       sodipodi:nodetypes="cccc" />
    <path
       style="fill:#d7f4d7;stroke:#217821;stroke-width:2;stroke-linecap:butt;stroke-linejoin:miter;stroke-dasharray:none;stroke-opacity:1;paint-order:fill markers stroke"
       d="m 480,328 -8.23113,-24 h 16.29476 z"
       id="path8"
       sodipodi:nodetypes="cccc" />
    <path
       style="fill:#ffd5d5;stroke:#aa0000;stroke-width:2;stroke-linecap:butt;stroke-linejoin:miter;stroke-dasharray:none;stroke-opacity:1;paint-order:fill markers stroke"
       d="m 192,208 -8.23113,-24 h 16.29476 z"
       id="path9"
       sodipodi:nodetypes="cccc" />
    <path
       style="fill:#ffd5d5;stroke:#aa0000;stroke-width:2;stroke-linecap:butt;stroke-linejoin:miter;stroke-dasharray:none;stroke-opacity:1;paint-order:fill markers stroke"
       d="m 384,304 -8.23113,24 h 16.29476 z"
       id="path10"
       sodipodi:nodetypes="cccc" />
    <path
       style="fill:#d3d3d3;stroke:#333333;stroke-width:2;stroke-linecap:round;stroke-linejoin:miter;stroke-dasharray:16, 16;stroke-dashoffset:0;stroke-opacity:1"
       d="M 232,320 H 56"
       id="path11"
       sodipodi:nodetypes="cc" />
    <path
       style="fill:#d3d3d3;stroke:#333333;stroke-width:2;stroke-linecap:butt;stroke-linejoin:miter;stroke-dasharray:none;stroke-opacity:1;paint-order:fill markers stroke"
       d="m 232,320 -24,-8.23113 v 16.29476 z"
       id="path13"
       sodipodi:nodetypes="cccc" />
    <path
       style="fill:#d7f4d7;stroke:#217821;stroke-width:2;stroke-linecap:butt;stroke-linejoin:miter;stroke-dasharray:none;stroke-opacity:1;paint-order:fill markers stroke"
       d="m 576,184 -8.23113,24 h 16.29476 z"
       id="path14"
       sodipodi:nodetypes="cccc" />
    <path
       style="fill:#d7f4d7;stroke:#217821;stroke-width:2;stroke-linecap:butt;stroke-linejoin:miter;stroke-dasharray:none;stroke-opacity:1;paint-order:fill markers stroke"
       d="m 672,184 -8.23113,24 h 16.29476 z"
       id="path15"
       sodipodi:nodetypes="cccc" />
    <path
       style="fill:#d7f4d7;stroke:#217821;stroke-width:2;stroke-linecap:butt;stroke-linejoin:miter;stroke-dasharray:none;stroke-opacity:1;paint-order:fill markers stroke"
       d="m 863.93637,327.88253 -8.23113,-24 H 872 Z"
       id="path16"
       sodipodi:nodetypes="cccc" />
    <path
       style="fill:#d7f4d7;stroke:#217821;stroke-width:2;stroke-linecap:butt;stroke-linejoin:miter;stroke-dasharray:none;stroke-opacity:1;paint-order:fill markers stroke"
       d="m 960,328 -8.23113,-24 h 16.29476 z"
       id="path17"
       sodipodi:nodetypes="cccc" />
    <path
       style="fill:#ffd5d5;stroke:#aa0000;stroke-width:2;stroke-linecap:butt;stroke-linejoin:miter;stroke-dasharray:none;stroke-opacity:1;paint-order:fill markers stroke"
       d="M 1152.2312,208 1144,184 h 16.2948 z"
       id="path18"
       sodipodi:nodetypes="cccc" />
    <path
       style="fill:#ffd5d5;stroke:#aa0000;stroke-width:2;stroke-linecap:butt;stroke-linejoin:miter;stroke-dasharray:none;stroke-opacity:1;paint-order:fill markers stroke"
       d="m 1056,208 -8.2312,-24 h 16.2948 z"
       id="path19"
       sodipodi:nodetypes="cccc" />
    <path
       style="fill:#ffd5d5;stroke:#aa0000;stroke-width:2;stroke-linecap:butt;stroke-linejoin:miter;stroke-dasharray:none;stroke-opacity:1;paint-order:fill markers stroke"
       d="m 1343.9364,304 -8.2312,24 H 1352 Z"
       id="path20"
       sodipodi:nodetypes="cccc" />
    <path
       style="fill:#ffd5d5;stroke:#aa0000;stroke-width:2;stroke-linecap:butt;stroke-linejoin:miter;stroke-dasharray:none;stroke-opacity:1;paint-order:fill markers stroke"
       d="m 1440,304 -8.2312,24 h 16.2948 z"
       id="path21"
       sodipodi:nodetypes="cccc" />
    <g
       id="g27"
       transform="translate(0,-16)">
      <circle
         style="fill:#d7f4d7;fill-opacity:1;stroke:#217821;stroke-width:2.12132;stroke-linecap:round;stroke-linejoin:round;stroke-miterlimit:16;stroke-dasharray:none;stroke-dashoffset:0;stroke-opacity:1;paint-order:fill markers stroke"
         id="path25"
         cx="96"
         cy="304"
         r="12" />
      <path
         style="fill:none;stroke:#217821;stroke-width:2;stroke-linecap:round;stroke-linejoin:miter;stroke-dasharray:none;stroke-opacity:1"
         d="m 96.000003,297.99998 v 11.89696"
         id="path26"
         sodipodi:nodetypes="cc" />
      <path
         style="fill:none;stroke:#217821;stroke-width:2;stroke-linecap:round;stroke-linejoin:miter;stroke-dasharray:none;stroke-opacity:1"
         d="M 90.210834,303.99998 H 102.10924"
         id="path27"
         sodipodi:nodetypes="cc" />
    </g>
    <g
       id="g31"
       transform="translate(0,-7.9999695)">
      <circle
         style="fill:#ffd5d5;fill-opacity:1;stroke:#aa0000;stroke-width:2.12132;stroke-linecap:round;stroke-linejoin:round;stroke-miterlimit:16;stroke-dasharray:none;stroke-dashoffset:0;stroke-opacity:1;paint-order:fill markers stroke"
         id="circle30"
         cx="192"
         cy="295.99997"
         r="12" />
      <path
         style="fill:#ffd5d5;fill-opacity:1;stroke:#aa0000;stroke-width:2;stroke-linecap:round;stroke-linejoin:miter;stroke-dasharray:none;stroke-opacity:1"
         d="m 186.21083,295.99996 h 11.89841"
         id="path31"
         sodipodi:nodetypes="cc" />
    </g>
    <path
       style="fill:#d3d3d3;stroke:#333333;stroke-width:2;stroke-linecap:round;stroke-linejoin:miter;stroke-dasharray:16, 16;stroke-dashoffset:0;stroke-opacity:1"
       d="M 712,322.00002 H 536"
       id="path38"
       sodipodi:nodetypes="cc" />
    <path
       style="fill:#d3d3d3;stroke:#333333;stroke-width:2;stroke-linecap:butt;stroke-linejoin:miter;stroke-dasharray:none;stroke-opacity:1;paint-order:fill markers stroke"
       d="m 712,322.00002 -24,-8.23113 v 16.29476 z"
       id="path39"
       sodipodi:nodetypes="cccc" />
    <g
       id="g41"
       transform="translate(480,-16)">
      <circle
         style="fill:#d7f4d7;fill-opacity:1;stroke:#217821;stroke-width:2.12132;stroke-linecap:round;stroke-linejoin:round;stroke-miterlimit:16;stroke-dasharray:none;stroke-dashoffset:0;stroke-opacity:1;paint-order:fill markers stroke"
         id="circle39"
         cx="96"
         cy="304"
         r="12" />
      <path
         style="fill:none;stroke:#217821;stroke-width:2;stroke-linecap:round;stroke-linejoin:miter;stroke-dasharray:none;stroke-opacity:1"
         d="m 96.000003,297.99998 v 11.89696"
         id="path40"
         sodipodi:nodetypes="cc" />
      <path
         style="fill:none;stroke:#217821;stroke-width:2;stroke-linecap:round;stroke-linejoin:miter;stroke-dasharray:none;stroke-opacity:1"
         d="M 90.210834,303.99998 H 102.10924"
         id="path41"
         sodipodi:nodetypes="cc" />
    </g>
    <g
       id="g46"
       transform="translate(576,-16)">
      <circle
         style="fill:#d7f4d7;fill-opacity:1;stroke:#217821;stroke-width:2.12132;stroke-linecap:round;stroke-linejoin:round;stroke-miterlimit:16;stroke-dasharray:none;stroke-dashoffset:0;stroke-opacity:1;paint-order:fill markers stroke"
         id="circle45"
         cx="96"
         cy="304"
         r="12" />
      <path
         style="fill:none;stroke:#217821;stroke-width:2;stroke-linecap:round;stroke-linejoin:miter;stroke-dasharray:none;stroke-opacity:1"
         d="m 96.000003,297.99998 v 11.89696"
         id="path45"
         sodipodi:nodetypes="cc" />
      <path
         style="fill:none;stroke:#217821;stroke-width:2;stroke-linecap:round;stroke-linejoin:miter;stroke-dasharray:none;stroke-opacity:1"
         d="M 90.210834,303.99998 H 102.10924"
         id="path46"
         sodipodi:nodetypes="cc" />
    </g>
    <path
       style="fill:#d3d3d3;stroke:#333333;stroke-width:2;stroke-linecap:round;stroke-linejoin:miter;stroke-dasharray:16, 16;stroke-dashoffset:0;stroke-opacity:1"
       d="M 1192,322.00002 H 1016"
       id="path47"
       sodipodi:nodetypes="cc" />
    <path
       style="fill:#d3d3d3;stroke:#333333;stroke-width:2;stroke-linecap:butt;stroke-linejoin:miter;stroke-dasharray:none;stroke-opacity:1;paint-order:fill markers stroke"
       d="m 1192,322.00002 -24,-8.23113 v 16.29476 z"
       id="path48"
       sodipodi:nodetypes="cccc" />
    <g
       id="g55"
       transform="translate(864,-7.9999714)">
      <circle
         style="fill:#ffd5d5;fill-opacity:1;stroke:#aa0000;stroke-width:2.12132;stroke-linecap:round;stroke-linejoin:round;stroke-miterlimit:16;stroke-dasharray:none;stroke-dashoffset:0;stroke-opacity:1;paint-order:fill markers stroke"
         id="circle54"
         cx="192"
         cy="295.99997"
         r="12" />
      <path
         style="fill:#ffd5d5;fill-opacity:1;stroke:#aa0000;stroke-width:2;stroke-linecap:round;stroke-linejoin:miter;stroke-dasharray:none;stroke-opacity:1"
         d="m 186.21083,295.99996 h 11.89841"
         id="path55"
         sodipodi:nodetypes="cc" />
    </g>
    <g
       id="g56"
       transform="translate(960,-7.9999735)">
      <circle
         style="fill:#ffd5d5;fill-opacity:1;stroke:#aa0000;stroke-width:2.12132;stroke-linecap:round;stroke-linejoin:round;stroke-miterlimit:16;stroke-dasharray:none;stroke-dashoffset:0;stroke-opacity:1;paint-order:fill markers stroke"
         id="circle55"
         cx="192"
         cy="295.99997"
         r="12" />
      <path
         style="fill:#ffd5d5;fill-opacity:1;stroke:#aa0000;stroke-width:2;stroke-linecap:round;stroke-linejoin:miter;stroke-dasharray:none;stroke-opacity:1"
         d="m 186.21083,295.99996 h 11.89841"
         id="path56"
         sodipodi:nodetypes="cc" />
    </g>
    <path
       style="-inkscape-font-specification:'.Apple SD Gothic NeoI Semi-Bold';fill:#333333;fill-opacity:0.97"
       d="m 48.575835,301.06668 c 5.263995,0 9.482658,-3.39733 9.482658,-12.17066 v -1.904 c 0,-8.84799 -4.29333,-12.05865 -9.407992,-12.05865 -5.151995,0 -9.669325,3.17333 -9.669325,12.20799 v 1.79199 c 0,8.624 4.218663,12.13333 9.594659,12.13333 z m 0,-3.06133 c -3.621331,0 -5.487996,-2.87467 -5.487996,-8.96 v -2.31466 c 0,-6.048 1.903999,-8.73599 5.525329,-8.73599 3.583997,0 5.450662,2.79999 5.450662,8.95999 v 2.31466 c 0,6.23467 -1.866665,8.736 -5.487995,8.736 z"
       id="text1"
       aria-label="0" />
    <path
       style="-inkscape-font-specification:'.Apple SD Gothic NeoI Semi-Bold';fill:#333333;fill-opacity:0.97"
       d="m 144.29866,300.84269 h 3.88266 v -25.68531 h -2.05333 l -6.30933,2.83733 v 2.27733 l 4.48,-0.97067 z"
       id="text8"
       aria-label="1" />
    <path
       style="-inkscape-font-specification:'.Apple SD Gothic NeoI Semi-Bold';fill:#333333;fill-opacity:0.97"
       d="m 240.57583,301.06665 c 5.26399,0 9.48266,-3.39733 9.48266,-12.17066 v -1.904 c 0,-8.84799 -4.29333,-12.05865 -9.408,-12.05865 -5.15199,0 -9.66932,3.17333 -9.66932,12.20798 v 1.792 c 0,8.624 4.21866,12.13333 9.59466,12.13333 z m 0,-3.06133 c -3.62133,0 -5.488,-2.87467 -5.488,-8.96 v -2.31466 c 0,-6.048 1.904,-8.73599 5.52533,-8.73599 3.584,0 5.45066,2.79999 5.45066,8.95999 v 2.31466 c 0,6.23466 -1.86666,8.736 -5.48799,8.736 z"
       id="text9"
       aria-label="0" />
    <path
       style="-inkscape-font-specification:'.Apple SD Gothic NeoI Semi-Bold';fill:#333333;fill-opacity:0.97"
       d="m 528.57583,301.06665 c 5.26399,0 9.48266,-3.39733 9.48266,-12.17066 v -1.904 c 0,-8.84799 -4.29333,-12.05865 -9.408,-12.05865 -5.15199,0 -9.66932,3.17333 -9.66932,12.20798 v 1.792 c 0,8.624 4.21866,12.13333 9.59466,12.13333 z m 0,-3.06133 c -3.62133,0 -5.488,-2.87467 -5.488,-8.96 v -2.31466 c 0,-6.048 1.904,-8.73599 5.52533,-8.73599 3.584,0 5.45066,2.79999 5.45066,8.95999 v 2.31466 c 0,6.23466 -1.86666,8.736 -5.48799,8.736 z"
       id="text10"
       aria-label="0" />
    <path
       style="-inkscape-font-specification:'.Apple SD Gothic NeoI Semi-Bold';fill:#333333;fill-opacity:0.97"
       d="m 624.29866,300.84266 h 3.88266 v -25.68531 h -2.05333 l -6.30933,2.83733 v 2.27733 l 4.48,-0.97067 z"
       id="text11"
       aria-label="1" />
    <path
       style="-inkscape-font-specification:'.Apple SD Gothic NeoI Semi-Bold';fill:#333333;fill-opacity:0.97"
       d="m 712.01069,300.84265 h 15.97865 v -3.136 h -10.75199 l 3.43466,-3.43467 c 3.584,-3.77066 6.98133,-7.35466 6.98133,-11.79732 0,-4.55466 -2.83733,-7.31733 -8.21333,-7.31733 -2.87466,0 -5.45066,1.08267 -7.09333,2.09067 l 0.784,2.94933 c 1.41867,-0.93333 3.50933,-1.86666 5.41333,-1.86666 3.36,0 5.04,1.38133 5.04,4.59199 0,3.36 -2.688,6.34666 -6.19733,10.04266 l -5.37599,5.59999 z"
       id="text12"
       aria-label="2" />
    <path
       style="-inkscape-font-specification:'.Apple SD Gothic NeoI Semi-Bold';fill:#333333;fill-opacity:0.97"
       d="m 1008.5758,301.06665 c 5.264,0 9.4827,-3.39733 9.4827,-12.17066 v -1.904 c 0,-8.84799 -4.2933,-12.05865 -9.408,-12.05865 -5.152,0 -9.66933,3.17333 -9.66933,12.20798 v 1.792 c 0,8.624 4.21863,12.13333 9.59463,12.13333 z m 0,-3.06133 c -3.6213,0 -5.488,-2.87467 -5.488,-8.96 v -2.31466 c 0,-6.048 1.904,-8.73599 5.5254,-8.73599 3.584,0 5.4506,2.79999 5.4506,8.95999 v 2.31466 c 0,6.23466 -1.8666,8.736 -5.488,8.736 z"
       id="text13"
       aria-label="0" />
    <path
       style="-inkscape-font-specification:'.Apple SD Gothic NeoI Semi-Bold';fill:#333333;fill-opacity:0.97"
       d="m 1111.5413,300.84266 h 3.8827 v -25.68531 h -2.0533 l -6.3094,2.83733 v 2.27733 l 4.48,-0.97067 z m -18.9653,-10.90133 h 11.1254 V 286.768 h -11.1254 z"
       id="text14"
       aria-label="1-" />
    <path
       style="-inkscape-font-specification:'.Apple SD Gothic NeoI Semi-Bold';fill:#333333;fill-opacity:0.97"
       d="m 1199.5147,300.84265 h 15.9786 v -3.136 h -10.752 l 3.4347,-3.43467 c 3.584,-3.77066 6.9813,-7.35466 6.9813,-11.79732 0,-4.55466 -2.8373,-7.31733 -8.2133,-7.31733 -2.8747,0 -5.4507,1.08267 -7.0933,2.09067 l 0.784,2.94933 c 1.4186,-0.93333 3.5093,-1.86666 5.4133,-1.86666 3.36,0 5.04,1.38133 5.04,4.59199 0,3.36 -2.688,6.34666 -6.1974,10.04266 l -5.3759,5.59999 z m -15.008,-10.75199 h 11.1253 v -3.17334 h -11.1253 z"
       id="text15"
       aria-label="2-" />
  </g>
</svg>
