<?xml version="1.0" encoding="UTF-8" standalone="no"?>
<!-- Created with Inkscape (http://www.inkscape.org/) -->

<svg
   width="768"
   height="768"
   viewBox="0 0 768 768"
   version="1.1"
   id="svg5"
   inkscape:version="1.3.2 (091e20e, 2023-11-25)"
   sodipodi:docname="define_shape.svg"
   inkscape:export-filename="define_shape.png"
   inkscape:export-xdpi="192"
   inkscape:export-ydpi="192"
   xmlns:inkscape="http://www.inkscape.org/namespaces/inkscape"
   xmlns:sodipodi="http://sodipodi.sourceforge.net/DTD/sodipodi-0.dtd"
   xmlns="http://www.w3.org/2000/svg"
   xmlns:svg="http://www.w3.org/2000/svg">
  <sodipodi:namedview
     id="namedview7"
     pagecolor="#ffffff"
     bordercolor="#666666"
     borderopacity="1.0"
     inkscape:showpageshadow="2"
     inkscape:pageopacity="0.0"
     inkscape:pagecheckerboard="true"
     inkscape:deskcolor="#d1d1d1"
     inkscape:document-units="px"
     showgrid="true"
     inkscape:zoom="2.6516575"
     inkscape:cx="88.058128"
     inkscape:cy="319.04572"
     inkscape:window-width="2008"
     inkscape:window-height="1023"
     inkscape:window-x="221"
     inkscape:window-y="197"
     inkscape:window-maximized="0"
     inkscape:current-layer="layer1">
    <inkscape:grid
       id="grid1"
       units="px"
       originx="0"
       originy="0"
       spacingx="128"
       spacingy="128"
       empcolor="#0099e5"
       empopacity="0.30196078"
       color="#0099e5"
       opacity="0.14901961"
       empspacing="2"
       dotted="false"
       gridanglex="30"
       gridanglez="30"
       visible="true" />
  </sodipodi:namedview>
  <defs
     id="defs2">
    <inkscape:path-effect
       effect="fillet_chamfer"
       id="path-effect49"
       is_visible="true"
       lpeversion="1"
       nodesatellites_param="F,0,0,1,0,5.2415627,0,1 @ F,0,0,1,0,0,0,1 @ F,0,0,1,0,4,0,1 @ F,0,0,1,0,4.2116687,0,1 @ F,0,0,1,0,0,0,1 @ F,0,0,1,0,5.6358588,0,1 @ F,0,0,1,0,0,0,1"
       radius="0"
       unit="px"
       method="auto"
       mode="F"
       chamfer_steps="1"
       flexible="false"
       use_knot_distance="true"
       apply_no_radius="true"
       apply_with_radius="true"
       only_selected="false"
       hide_knots="false" />
  </defs>
  <g
     inkscape:label="Layer 1"
     inkscape:groupmode="layer"
     id="layer1">
    <g
       id="g2">
      <path
         style="fill:#000000;stroke:#808080;stroke-width:1px;stroke-linecap:butt;stroke-linejoin:miter;stroke-opacity:0.5"
         d="M 640,0 V 768"
         id="path17"
         sodipodi:nodetypes="cc" />
      <path
         style="fill:#000000;stroke:#808080;stroke-width:1px;stroke-linecap:butt;stroke-linejoin:miter;stroke-opacity:0.5"
         d="M 384,0 V 768"
         id="path15"
         sodipodi:nodetypes="cc" />
      <path
         style="fill:#000000;stroke:#808080;stroke-width:1px;stroke-linecap:butt;stroke-linejoin:miter;stroke-opacity:0.5"
         d="M 512,0 V 768"
         id="path16"
         sodipodi:nodetypes="cc" />
      <path
         style="fill:#000000;stroke:#808080;stroke-width:1px;stroke-linecap:butt;stroke-linejoin:miter;stroke-opacity:0.5"
         d="M 768,640 H 0"
         id="path32"
         sodipodi:nodetypes="cc" />
      <path
         style="fill:#000000;stroke:#808080;stroke-width:1px;stroke-linecap:butt;stroke-linejoin:miter;stroke-opacity:0.5"
         d="M 768,256 H 0"
         id="path29-8"
         sodipodi:nodetypes="cc" />
      <path
         style="opacity:0.942;fill:#000000;stroke:#808080;stroke-width:1px;stroke-linecap:butt;stroke-linejoin:miter;stroke-opacity:0.5"
         d="M 768,384 H 0"
         id="path30"
         sodipodi:nodetypes="cc" />
      <path
         style="opacity:0.942;fill:#000000;stroke:#808080;stroke-width:1px;stroke-linecap:butt;stroke-linejoin:miter;stroke-opacity:0.5"
         d="M 768,512 H 0"
         id="path31"
         sodipodi:nodetypes="cc" />
      <path
         style="fill:#000000;stroke:#808080;stroke-width:1px;stroke-linecap:butt;stroke-linejoin:miter;stroke-opacity:0.5"
         d="M 128,0 V 768"
         id="path13"
         sodipodi:nodetypes="cc" />
      <path
         style="fill:#20c720;fill-opacity:1;stroke:#808080;stroke-width:1px;stroke-linecap:butt;stroke-linejoin:miter;stroke-opacity:0.501961"
         d="M 128,0 V 768"
         id="path11"
         sodipodi:nodetypes="cc" />
      <path
         style="fill:#000000;stroke:#808080;stroke-width:1px;stroke-linecap:butt;stroke-linejoin:miter;stroke-opacity:0.5"
         d="M 256,0 V 768"
         id="path14"
         sodipodi:nodetypes="cc" />
      <path
         style="fill:#000000;stroke:#808080;stroke-width:1px;stroke-linecap:butt;stroke-linejoin:miter;stroke-opacity:0.5"
         d="M 768,128 H 0"
         id="path7"
         sodipodi:nodetypes="cc" />
    </g>
    <path
       id="path26"
       style="fill:#1fc71f;fill-opacity:0.196078;stroke:#20c720;stroke-width:4;stroke-linecap:butt;stroke-linejoin:round;stroke-dasharray:none;stroke-opacity:1"
       d="m 396,96 -348,84 12,367.37767 252,168 372,-60 -48,-479.99998 z M 132,228 H 444 L 516,384 408,540 228,588 120,504 Z m 396,264 96,48 -60,36 60,48 -180,24 -36,-60 z" />
    <path
       id="path29"
       style="fill:#1fc71f;fill-opacity:0.196078;stroke:#20c720;stroke-width:4;stroke-linecap:butt;stroke-linejoin:round;stroke-dasharray:none;stroke-opacity:1"
       d="M 204,276 166.91308,386.5437 192,480 336,504 444,384 384,276 Z m 84,48 24,60 72,-24 -24,72 -84,-12 -36,-48 z"
       sodipodi:nodetypes="cccccccccccccc" />
    <path
       style="font-size:28px;line-height:1.25;font-family:'Arial Rounded MT Bold';-inkscape-font-specification:'Arial Rounded MT Bold, ';word-spacing:0px;direction:rtl;fill:#20c720;stroke-width:0.375"
       d="m 228.36429,181.2373 q 0,1.81836 -0.94336,3.26758 -0.92969,1.44922 -2.73438,2.26953 -1.80468,0.82032 -4.27929,0.82032 -2.9668,0 -4.89453,-1.1211 -1.36719,-0.80664 -2.22852,-2.14648 -0.84766,-1.35352 -0.84766,-2.625 0,-0.73828 0.50586,-1.25781 0.51953,-0.53321 1.3125,-0.53321 0.64258,0 1.08008,0.41016 0.45117,0.41016 0.76563,1.2168 0.38281,0.95703 0.82031,1.59961 0.45117,0.64257 1.25781,1.0664 0.80664,0.41016 2.11914,0.41016 1.80469,0 2.92578,-0.83399 1.13477,-0.84765 1.13477,-2.10547 0,-0.99804 -0.61524,-1.61328 -0.60156,-0.6289 -1.57226,-0.95703 -0.95703,-0.32812 -2.57031,-0.69726 -2.16016,-0.50586 -3.62305,-1.17578 -1.44922,-0.6836 -2.31055,-1.84571 -0.84765,-1.17578 -0.84765,-2.91211 0,-1.65429 0.90234,-2.93945 0.90234,-1.28516 2.61133,-1.96875 1.70898,-0.69727 4.01953,-0.69727 1.8457,0 3.18555,0.46485 1.35351,0.45117 2.24218,1.21679 0.88868,0.75196 1.29883,1.58594 0.41016,0.83399 0.41016,1.62696 0,0.7246 -0.51953,1.3125 -0.50586,0.57421 -1.27149,0.57421 -0.69726,0 -1.0664,-0.34179 -0.35547,-0.35547 -0.7793,-1.14844 -0.54688,-1.13477 -1.3125,-1.76367 -0.76563,-0.64258 -2.46094,-0.64258 -1.57226,0 -2.54297,0.69727 -0.95703,0.68359 -0.95703,1.65429 0,0.60156 0.32813,1.03906 0.32812,0.4375 0.90234,0.75196 0.57422,0.31445 1.16211,0.49219 0.58789,0.17773 1.94141,0.51953 1.69531,0.39648 3.0625,0.875 1.38086,0.47851 2.33789,1.16211 0.9707,0.68359 1.5039,1.73632 0.54688,1.03907 0.54688,2.55664 z m 6.83594,-12.0996 v 5.5371 q 0.71093,-0.82031 1.38086,-1.29882 0.68359,-0.47852 1.5039,-0.71094 0.82031,-0.24609 1.76367,-0.24609 1.42188,0 2.51563,0.60156 1.10742,0.60156 1.73633,1.75 0.39648,0.66992 0.5332,1.5039 0.13672,0.82032 0.13672,1.90039 v 7.1504 q 0,1.12109 -0.51953,1.69531 -0.50586,0.57422 -1.35352,0.57422 -1.8457,0 -1.8457,-2.26953 v -6.30274 q 0,-1.79101 -0.5332,-2.74805 -0.53321,-0.9707 -2.02344,-0.9707 -0.99805,0 -1.80469,0.57422 -0.79297,0.56055 -1.18945,1.54492 -0.30078,0.83399 -0.30078,2.9668 v 4.93555 q 0,1.10742 -0.50586,1.69531 -0.49219,0.57422 -1.38086,0.57422 -1.84571,0 -1.84571,-2.26953 v -16.1875 q 0,-1.13477 0.47852,-1.69532 0.49219,-0.57422 1.36719,-0.57422 0.88867,0 1.38086,0.57422 0.50586,0.57422 0.50586,1.69532 z m 22.69531,16.35156 q -1.35352,1.05273 -2.625,1.58594 -1.25781,0.51953 -2.83008,0.51953 -1.43555,0 -2.5293,-0.56055 -1.08007,-0.57422 -1.66797,-1.54492 -0.58789,-0.97071 -0.58789,-2.10547 0,-1.53125 0.97071,-2.61133 0.9707,-1.08008 2.66601,-1.44922 0.35547,-0.082 1.76367,-0.36914 1.40821,-0.28711 2.40625,-0.51953 1.01172,-0.24609 2.1875,-0.58789 -0.0684,-1.47656 -0.60156,-2.16016 -0.51953,-0.69726 -2.17383,-0.69726 -1.42187,0 -2.14648,0.39648 -0.71094,0.39649 -1.23047,1.18946 -0.50586,0.79296 -0.72461,1.05273 -0.20508,0.24609 -0.90234,0.24609 -0.62891,0 -1.09375,-0.39648 -0.45117,-0.41016 -0.45117,-1.03906 0,-0.98438 0.69726,-1.91407 0.69727,-0.92968 2.17383,-1.53125 1.47656,-0.60156 3.67773,-0.60156 2.46094,0 3.86914,0.58789 1.40821,0.57422 1.98243,1.83203 0.58789,1.25782 0.58789,3.33594 0,1.3125 -0.0137,2.22852 0,0.91601 -0.0137,2.03711 0,1.05273 0.3418,2.20117 0.35547,1.13476 0.35547,1.46289 0,0.57422 -0.54688,1.05273 -0.5332,0.46485 -1.21679,0.46485 -0.57422,0 -1.13477,-0.53321 -0.56055,-0.54687 -1.18945,-1.57226 z m -0.2461,-5.40039 q -0.82031,0.30078 -2.39257,0.64258 -1.5586,0.32812 -2.16016,0.49218 -0.60156,0.15039 -1.14844,0.61524 -0.54687,0.45117 -0.54687,1.27148 0,0.84766 0.64258,1.44922 0.64257,0.58789 1.68164,0.58789 1.10742,0 2.03711,-0.47851 0.94336,-0.49219 1.38086,-1.25782 0.50585,-0.84765 0.50585,-2.78906 z m 10.52735,-5.57813 v 0.45117 q 1.05273,-1.29882 2.1875,-1.90039 1.13476,-0.61523 2.57031,-0.61523 1.72266,0 3.17188,0.88867 1.44921,0.88867 2.2832,2.59766 0.84766,1.70898 0.84766,4.04687 0,1.72266 -0.49219,3.17188 -0.47852,1.43554 -1.32617,2.41992 -0.84766,0.9707 -2.00977,1.50391 -1.14844,0.51953 -2.47461,0.51953 -1.59961,0 -2.69336,-0.64258 -1.08008,-0.64258 -2.06445,-1.88672 v 5.60547 q 0,2.46094 -1.79102,2.46094 -1.05273,0 -1.39453,-0.64258 -0.3418,-0.62891 -0.3418,-1.84571 v -16.10546 q 0,-1.06641 0.46485,-1.58594 0.46484,-0.5332 1.27148,-0.5332 0.79297,0 1.28516,0.54687 0.50586,0.5332 0.50586,1.54492 z m 7.31445,5.42774 q 0,-1.47657 -0.45117,-2.5293 -0.45117,-1.06641 -1.25781,-1.62695 -0.79297,-0.57422 -1.76367,-0.57422 -1.54493,0 -2.61133,1.21679 -1.05274,1.2168 -1.05274,3.58204 0,2.22851 1.05274,3.47265 1.05273,1.23047 2.61133,1.23047 0.92968,0 1.72265,-0.5332 0.79297,-0.54688 1.27149,-1.62696 0.47851,-1.08007 0.47851,-2.61132 z m 17.1582,0.98437 h -7.30078 q 0.0137,1.27149 0.50586,2.24219 0.50586,0.9707 1.32617,1.46289 0.83399,0.49219 1.83204,0.49219 0.66992,0 1.21679,-0.15039 0.56055,-0.16407 1.08008,-0.49219 0.51953,-0.3418 0.95703,-0.72461 0.4375,-0.38281 1.13477,-1.03906 0.28711,-0.2461 0.82031,-0.2461 0.57422,0 0.92969,0.31446 0.35547,0.31445 0.35547,0.88867 0,0.50586 -0.39649,1.18945 -0.39648,0.66992 -1.20312,1.29883 -0.79297,0.61523 -2.00977,1.02539 -1.20312,0.41016 -2.77539,0.41016 -3.5957,0 -5.5918,-2.05078 -1.99609,-2.05079 -1.99609,-5.56446 0,-1.65429 0.49219,-3.0625 0.49219,-1.42187 1.43554,-2.43359 0.94336,-1.01172 2.32422,-1.54492 1.38086,-0.54688 3.0625,-0.54688 2.1875,0 3.7461,0.92969 1.57226,0.91601 2.35156,2.37891 0.7793,1.46289 0.7793,2.98046 0,1.40821 -0.80664,1.83204 -0.80664,0.41015 -2.26954,0.41015 z m -7.30078,-2.11914 h 6.76758 q -0.13672,-1.91406 -1.03906,-2.85742 -0.88867,-0.95703 -2.35156,-0.95703 -1.39453,0 -2.29688,0.9707 -0.88867,0.95703 -1.08008,2.84375 z m 26.4961,6.57617 v -12.4414 q -3.47266,2.66601 -4.67578,2.66601 -0.57422,0 -1.02539,-0.45117 -0.4375,-0.46484 -0.4375,-1.06641 0,-0.69726 0.4375,-1.02539 0.4375,-0.32812 1.54492,-0.84765 1.65429,-0.7793 2.63867,-1.64063 0.99805,-0.86133 1.76367,-1.92773 0.76563,-1.06641 0.99805,-1.3125 0.23242,-0.2461 0.875,-0.2461 0.72461,0 1.16211,0.56055 0.4375,0.56055 0.4375,1.54492 v 15.6543 q 0,2.74805 -1.87305,2.74805 -0.83398,0 -1.33984,-0.56055 -0.50586,-0.56055 -0.50586,-1.6543 z"
       id="text1"
       aria-label="Shape 1" />
    <path
       style="font-size:28px;line-height:1.25;font-family:'Arial Rounded MT Bold';-inkscape-font-specification:'Arial Rounded MT Bold, ';word-spacing:0px;direction:rtl;fill:#20c720;stroke-width:0.375"
       d="m 228.36429,457.2373 q 0,1.81836 -0.94336,3.26758 -0.92969,1.44922 -2.73438,2.26953 -1.80468,0.82032 -4.27929,0.82032 -2.9668,0 -4.89453,-1.1211 -1.36719,-0.80664 -2.22852,-2.14648 -0.84766,-1.35352 -0.84766,-2.625 0,-0.73828 0.50586,-1.25781 0.51953,-0.53321 1.3125,-0.53321 0.64258,0 1.08008,0.41016 0.45117,0.41016 0.76563,1.2168 0.38281,0.95703 0.82031,1.59961 0.45117,0.64257 1.25781,1.0664 0.80664,0.41016 2.11914,0.41016 1.80469,0 2.92578,-0.83399 1.13477,-0.84765 1.13477,-2.10547 0,-0.99804 -0.61524,-1.61328 -0.60156,-0.6289 -1.57226,-0.95703 -0.95703,-0.32812 -2.57031,-0.69726 -2.16016,-0.50586 -3.62305,-1.17578 -1.44922,-0.6836 -2.31055,-1.84571 -0.84765,-1.17578 -0.84765,-2.91211 0,-1.65429 0.90234,-2.93945 0.90234,-1.28516 2.61133,-1.96875 1.70898,-0.69727 4.01953,-0.69727 1.8457,0 3.18555,0.46485 1.35351,0.45117 2.24218,1.21679 0.88868,0.75196 1.29883,1.58594 0.41016,0.83399 0.41016,1.62696 0,0.7246 -0.51953,1.3125 -0.50586,0.57421 -1.27149,0.57421 -0.69726,0 -1.0664,-0.34179 -0.35547,-0.35547 -0.7793,-1.14844 -0.54688,-1.13477 -1.3125,-1.76367 -0.76563,-0.64258 -2.46094,-0.64258 -1.57226,0 -2.54297,0.69727 -0.95703,0.68359 -0.95703,1.65429 0,0.60156 0.32813,1.03906 0.32812,0.4375 0.90234,0.75196 0.57422,0.31445 1.16211,0.49219 0.58789,0.17773 1.94141,0.51953 1.69531,0.39648 3.0625,0.875 1.38086,0.47851 2.33789,1.16211 0.9707,0.68359 1.5039,1.73632 0.54688,1.03907 0.54688,2.55664 z m 6.83594,-12.0996 v 5.5371 q 0.71093,-0.82031 1.38086,-1.29882 0.68359,-0.47852 1.5039,-0.71094 0.82031,-0.24609 1.76367,-0.24609 1.42188,0 2.51563,0.60156 1.10742,0.60156 1.73633,1.75 0.39648,0.66992 0.5332,1.5039 0.13672,0.82032 0.13672,1.90039 v 7.1504 q 0,1.12109 -0.51953,1.69531 -0.50586,0.57422 -1.35352,0.57422 -1.8457,0 -1.8457,-2.26953 v -6.30274 q 0,-1.79101 -0.5332,-2.74805 -0.53321,-0.9707 -2.02344,-0.9707 -0.99805,0 -1.80469,0.57422 -0.79297,0.56055 -1.18945,1.54492 -0.30078,0.83399 -0.30078,2.9668 v 4.93555 q 0,1.10742 -0.50586,1.69531 -0.49219,0.57422 -1.38086,0.57422 -1.84571,0 -1.84571,-2.26953 v -16.1875 q 0,-1.13477 0.47852,-1.69532 0.49219,-0.57422 1.36719,-0.57422 0.88867,0 1.38086,0.57422 0.50586,0.57422 0.50586,1.69532 z m 22.69531,16.35156 q -1.35352,1.05273 -2.625,1.58594 -1.25781,0.51953 -2.83008,0.51953 -1.43555,0 -2.5293,-0.56055 -1.08007,-0.57422 -1.66797,-1.54492 -0.58789,-0.97071 -0.58789,-2.10547 0,-1.53125 0.97071,-2.61133 0.9707,-1.08008 2.66601,-1.44922 0.35547,-0.082 1.76367,-0.36914 1.40821,-0.28711 2.40625,-0.51953 1.01172,-0.24609 2.1875,-0.58789 -0.0684,-1.47656 -0.60156,-2.16016 -0.51953,-0.69726 -2.17383,-0.69726 -1.42187,0 -2.14648,0.39648 -0.71094,0.39649 -1.23047,1.18946 -0.50586,0.79296 -0.72461,1.05273 -0.20508,0.24609 -0.90234,0.24609 -0.62891,0 -1.09375,-0.39648 -0.45117,-0.41016 -0.45117,-1.03906 0,-0.98438 0.69726,-1.91407 0.69727,-0.92968 2.17383,-1.53125 1.47656,-0.60156 3.67773,-0.60156 2.46094,0 3.86914,0.58789 1.40821,0.57422 1.98243,1.83203 0.58789,1.25782 0.58789,3.33594 0,1.3125 -0.0137,2.22852 0,0.91601 -0.0137,2.03711 0,1.05273 0.3418,2.20117 0.35547,1.13476 0.35547,1.46289 0,0.57422 -0.54688,1.05273 -0.5332,0.46485 -1.21679,0.46485 -0.57422,0 -1.13477,-0.53321 -0.56055,-0.54687 -1.18945,-1.57226 z m -0.2461,-5.40039 q -0.82031,0.30078 -2.39257,0.64258 -1.5586,0.32812 -2.16016,0.49218 -0.60156,0.15039 -1.14844,0.61524 -0.54687,0.45117 -0.54687,1.27148 0,0.84766 0.64258,1.44922 0.64257,0.58789 1.68164,0.58789 1.10742,0 2.03711,-0.47851 0.94336,-0.49219 1.38086,-1.25782 0.50585,-0.84765 0.50585,-2.78906 z m 10.52735,-5.57813 v 0.45117 q 1.05273,-1.29882 2.1875,-1.90039 1.13476,-0.61523 2.57031,-0.61523 1.72266,0 3.17188,0.88867 1.44921,0.88867 2.2832,2.59766 0.84766,1.70898 0.84766,4.04687 0,1.72266 -0.49219,3.17188 -0.47852,1.43554 -1.32617,2.41992 -0.84766,0.9707 -2.00977,1.50391 -1.14844,0.51953 -2.47461,0.51953 -1.59961,0 -2.69336,-0.64258 -1.08008,-0.64258 -2.06445,-1.88672 v 5.60547 q 0,2.46094 -1.79102,2.46094 -1.05273,0 -1.39453,-0.64258 -0.3418,-0.62891 -0.3418,-1.84571 v -16.10546 q 0,-1.06641 0.46485,-1.58594 0.46484,-0.5332 1.27148,-0.5332 0.79297,0 1.28516,0.54687 0.50586,0.5332 0.50586,1.54492 z m 7.31445,5.42774 q 0,-1.47657 -0.45117,-2.5293 -0.45117,-1.06641 -1.25781,-1.62695 -0.79297,-0.57422 -1.76367,-0.57422 -1.54493,0 -2.61133,1.21679 -1.05274,1.2168 -1.05274,3.58204 0,2.22851 1.05274,3.47265 1.05273,1.23047 2.61133,1.23047 0.92968,0 1.72265,-0.5332 0.79297,-0.54688 1.27149,-1.62696 0.47851,-1.08007 0.47851,-2.61132 z m 17.1582,0.98437 h -7.30078 q 0.0137,1.27149 0.50586,2.24219 0.50586,0.9707 1.32617,1.46289 0.83399,0.49219 1.83204,0.49219 0.66992,0 1.21679,-0.15039 0.56055,-0.16407 1.08008,-0.49219 0.51953,-0.3418 0.95703,-0.72461 0.4375,-0.38281 1.13477,-1.03906 0.28711,-0.2461 0.82031,-0.2461 0.57422,0 0.92969,0.31446 0.35547,0.31445 0.35547,0.88867 0,0.50586 -0.39649,1.18945 -0.39648,0.66992 -1.20312,1.29883 -0.79297,0.61523 -2.00977,1.02539 -1.20312,0.41016 -2.77539,0.41016 -3.5957,0 -5.5918,-2.05078 -1.99609,-2.05079 -1.99609,-5.56446 0,-1.65429 0.49219,-3.0625 0.49219,-1.42187 1.43554,-2.43359 0.94336,-1.01172 2.32422,-1.54492 1.38086,-0.54688 3.0625,-0.54688 2.1875,0 3.7461,0.92969 1.57226,0.91601 2.35156,2.37891 0.7793,1.46289 0.7793,2.98046 0,1.40821 -0.80664,1.83204 -0.80664,0.41015 -2.26954,0.41015 z m -7.30078,-2.11914 h 6.76758 q -0.13672,-1.91406 -1.03906,-2.85742 -0.88867,-0.95703 -2.35156,-0.95703 -1.39453,0 -2.29688,0.9707 -0.88867,0.95703 -1.08008,2.84375 z m 24.8418,5.22266 h 7.13672 q 1.06641,0 1.62695,0.4375 0.56055,0.4375 0.56055,1.18945 0,0.66992 -0.45117,1.13477 -0.4375,0.46484 -1.33985,0.46484 h -10.0625 q -1.02539,0 -1.59961,-0.56055 -0.57421,-0.57422 -0.57421,-1.33984 0,-0.49219 0.36914,-1.29883 0.36914,-0.82031 0.80664,-1.28516 1.81836,-1.88671 3.28125,-3.22656 1.46289,-1.35351 2.09179,-1.77734 1.1211,-0.79297 1.85938,-1.58594 0.75195,-0.80664 1.13476,-1.64062 0.39649,-0.84766 0.39649,-1.6543 0,-0.875 -0.42383,-1.55859 -0.41016,-0.69727 -1.13477,-1.08008 -0.71093,-0.38282 -1.55859,-0.38282 -1.79101,0 -2.81641,1.57227 -0.13671,0.20508 -0.46484,1.12109 -0.31445,0.91602 -0.72461,1.40821 -0.39648,0.49218 -1.17578,0.49218 -0.68359,0 -1.13477,-0.45117 -0.45117,-0.45117 -0.45117,-1.23047 0,-0.94336 0.42383,-1.96875 0.42383,-1.02539 1.25781,-1.85937 0.84766,-0.83399 2.13282,-1.33984 1.29882,-0.51954 3.03515,-0.51954 2.0918,0 3.56836,0.65625 0.95703,0.4375 1.68164,1.20313 0.72461,0.76562 1.1211,1.77734 0.41015,0.99805 0.41015,2.07813 0,1.69531 -0.84765,3.08984 -0.83399,1.38086 -1.70899,2.17383 -0.875,0.7793 -2.93945,2.46094 -2.05078,1.68164 -2.81641,2.61133 -0.32812,0.36914 -0.66992,0.88867 z"
       id="text2"
       aria-label="Shape 2" />
  </g>
</svg>
