<?xml version="1.0" encoding="UTF-8" standalone="no"?>
<!-- Created with Inkscape (http://www.inkscape.org/) -->

<svg
   width="1536"
   height="512"
   viewBox="0 0 1536 512"
   version="1.1"
   id="svg5"
   inkscape:version="1.3.2 (091e20e, 2023-11-25)"
   sodipodi:docname="non-zero.svg"
   xmlns:inkscape="http://www.inkscape.org/namespaces/inkscape"
   xmlns:sodipodi="http://sodipodi.sourceforge.net/DTD/sodipodi-0.dtd"
   xmlns="http://www.w3.org/2000/svg"
   xmlns:svg="http://www.w3.org/2000/svg">
  <sodipodi:namedview
     id="namedview7"
     pagecolor="#ffffff"
     bordercolor="#666666"
     borderopacity="1.0"
     inkscape:showpageshadow="2"
     inkscape:pageopacity="0.0"
     inkscape:pagecheckerboard="true"
     inkscape:deskcolor="#d1d1d1"
     inkscape:document-units="px"
     showgrid="true"
     inkscape:zoom="0.48585494"
     inkscape:cx="775.95177"
     inkscape:cy="4.116455"
     inkscape:window-width="1792"
     inkscape:window-height="965"
     inkscape:window-x="163"
     inkscape:window-y="308"
     inkscape:window-maximized="0"
     inkscape:current-layer="layer1">
    <inkscape:grid
       id="grid7"
       units="px"
       originx="0"
       originy="0"
       spacingx="8"
       spacingy="8"
       empcolor="#0099e5"
       empopacity="0.30196078"
       color="#0099e5"
       opacity="0.14901961"
       empspacing="5"
       dotted="false"
       gridanglex="30"
       gridanglez="30"
       visible="true"
       enabled="true" />
  </sodipodi:namedview>
  <defs
     id="defs2" />
  <g
     inkscape:label="Layer 1"
     inkscape:groupmode="layer"
     id="layer1">
    <path
       id="rect2"
       style="fill:#aaccff;stroke:#2a7fff;stroke-width:1;stroke-linecap:round;stroke-linejoin:round;stroke-miterlimit:16;stroke-dasharray:none;stroke-opacity:1;paint-order:fill markers stroke;fill-opacity:1"
       d="M 96,64 V 448 H 480 V 64 Z m 96,96 H 384 V 352 H 192 Z" />
    <rect
       style="fill:#aaccff;stroke:#2a7fff;stroke-width:1;stroke-linecap:round;stroke-linejoin:round;stroke-miterlimit:16;stroke-dasharray:none;stroke-opacity:1;paint-order:fill markers stroke;fill-opacity:1"
       id="rect3"
       width="384"
       height="384"
       x="576"
       y="64" />
    <rect
       style="fill:#aaccff;stroke:#2a7fff;stroke-width:1;stroke-linecap:round;stroke-linejoin:round;stroke-miterlimit:16;stroke-dasharray:none;stroke-opacity:1;paint-order:fill markers stroke;fill-opacity:0.98582995"
       id="rect4"
       width="384"
       height="384"
       x="1056"
       y="64" />
    <rect
       style="fill:#80b3ff;stroke:#2a7fff;stroke-width:1;stroke-linecap:round;stroke-linejoin:round;stroke-miterlimit:16;stroke-dasharray:none;stroke-opacity:1;paint-order:fill markers stroke;fill-opacity:0.99392712"
       id="rect7"
       width="192"
       height="192"
       x="1152"
       y="160" />
    <path
       style="fill:#d7f4d7;stroke:#217821;stroke-width:2;stroke-linecap:butt;stroke-linejoin:miter;stroke-dasharray:none;stroke-opacity:1;paint-order:fill markers stroke"
       d="m 96,184 -8.231134,24 h 16.294764 z"
       id="path7"
       sodipodi:nodetypes="cccc" />
    <path
       style="fill:#d7f4d7;stroke:#217821;stroke-width:2;stroke-linecap:butt;stroke-linejoin:miter;stroke-dasharray:none;stroke-opacity:1;paint-order:fill markers stroke"
       d="m 480,328 -8.23113,-24 h 16.29476 z"
       id="path8"
       sodipodi:nodetypes="cccc" />
    <path
       style="fill:#ffd5d5;stroke:#aa0000;stroke-width:2;stroke-linecap:butt;stroke-linejoin:miter;stroke-dasharray:none;stroke-opacity:1;paint-order:fill markers stroke"
       d="m 192,208 -8.23113,-24 h 16.29476 z"
       id="path9"
       sodipodi:nodetypes="cccc" />
    <path
       style="fill:#ffd5d5;stroke:#aa0000;stroke-width:2;stroke-linecap:butt;stroke-linejoin:miter;stroke-dasharray:none;stroke-opacity:1;paint-order:fill markers stroke"
       d="m 384,304 -8.23113,24 h 16.29476 z"
       id="path10"
       sodipodi:nodetypes="cccc" />
    <rect
       style="fill:#80b3ff;stroke:#2a7fff;stroke-width:1;stroke-linecap:round;stroke-linejoin:round;stroke-miterlimit:16;stroke-dasharray:none;stroke-opacity:1;paint-order:fill markers stroke;fill-opacity:0.99392712"
       id="rect6"
       width="192"
       height="192"
       x="672"
       y="160" />
    <path
       style="fill:none;stroke:#ff6600;stroke-width:2;stroke-linecap:round;stroke-linejoin:miter;stroke-opacity:1;stroke-dasharray:16, 16;stroke-dashoffset:0"
       d="M 232,328 H 56"
       id="path11"
       sodipodi:nodetypes="cc" />
    <path
       style="fill:#ffe6d5;stroke:#ff6600;stroke-width:2;stroke-linecap:butt;stroke-linejoin:miter;stroke-dasharray:none;stroke-opacity:1;paint-order:fill markers stroke"
       d="m 232,328 -24,-8.23113 v 16.29476 z"
       id="path13"
       sodipodi:nodetypes="cccc" />
    <path
       style="fill:#d7f4d7;stroke:#217821;stroke-width:2;stroke-linecap:butt;stroke-linejoin:miter;stroke-dasharray:none;stroke-opacity:1;paint-order:fill markers stroke"
       d="m 576,184 -8.23113,24 h 16.29476 z"
       id="path14"
       sodipodi:nodetypes="cccc" />
    <path
       style="fill:#d7f4d7;stroke:#217821;stroke-width:2;stroke-linecap:butt;stroke-linejoin:miter;stroke-dasharray:none;stroke-opacity:1;paint-order:fill markers stroke"
       d="m 672,184 -8.23113,24 h 16.29476 z"
       id="path15"
       sodipodi:nodetypes="cccc" />
    <path
       style="fill:#d7f4d7;stroke:#217821;stroke-width:2;stroke-linecap:butt;stroke-linejoin:miter;stroke-dasharray:none;stroke-opacity:1;paint-order:fill markers stroke"
       d="m 863.93637,327.88253 -8.23113,-24 H 872 Z"
       id="path16"
       sodipodi:nodetypes="cccc" />
    <path
       style="fill:#d7f4d7;stroke:#217821;stroke-width:2;stroke-linecap:butt;stroke-linejoin:miter;stroke-dasharray:none;stroke-opacity:1;paint-order:fill markers stroke"
       d="m 960,328 -8.23113,-24 h 16.29476 z"
       id="path17"
       sodipodi:nodetypes="cccc" />
    <path
       style="fill:#ffd5d5;stroke:#aa0000;stroke-width:2;stroke-linecap:butt;stroke-linejoin:miter;stroke-dasharray:none;stroke-opacity:1;paint-order:fill markers stroke"
       d="M 1152.2312,208 1144,184 h 16.2948 z"
       id="path18"
       sodipodi:nodetypes="cccc" />
    <path
       style="fill:#ffd5d5;stroke:#aa0000;stroke-width:2;stroke-linecap:butt;stroke-linejoin:miter;stroke-dasharray:none;stroke-opacity:1;paint-order:fill markers stroke"
       d="m 1056,208 -8.2312,-24 h 16.2948 z"
       id="path19"
       sodipodi:nodetypes="cccc" />
    <path
       style="fill:#ffd5d5;stroke:#aa0000;stroke-width:2;stroke-linecap:butt;stroke-linejoin:miter;stroke-dasharray:none;stroke-opacity:1;paint-order:fill markers stroke"
       d="m 1343.9364,304 -8.2312,24 H 1352 Z"
       id="path20"
       sodipodi:nodetypes="cccc" />
    <path
       style="fill:#ffd5d5;stroke:#aa0000;stroke-width:2;stroke-linecap:butt;stroke-linejoin:miter;stroke-dasharray:none;stroke-opacity:1;paint-order:fill markers stroke"
       d="m 1440,304 -8.2312,24 h 16.2948 z"
       id="path21"
       sodipodi:nodetypes="cccc" />
    <g
       id="g27"
       transform="translate(0,-8)">
      <circle
         style="fill:#d7f4d7;fill-opacity:1;stroke:#217821;stroke-width:2.12132;stroke-linecap:round;stroke-linejoin:round;stroke-miterlimit:16;stroke-dasharray:none;stroke-dashoffset:0;stroke-opacity:1;paint-order:fill markers stroke"
         id="path25"
         cx="96"
         cy="304"
         r="12" />
      <path
         style="fill:none;stroke:#217821;stroke-width:2;stroke-linecap:round;stroke-linejoin:miter;stroke-dasharray:none;stroke-opacity:1"
         d="m 96.000003,297.99998 v 11.89696"
         id="path26"
         sodipodi:nodetypes="cc" />
      <path
         style="fill:none;stroke:#217821;stroke-width:2;stroke-linecap:round;stroke-linejoin:miter;stroke-dasharray:none;stroke-opacity:1"
         d="M 90.210834,303.99998 H 102.10924"
         id="path27"
         sodipodi:nodetypes="cc" />
    </g>
    <g
       id="g31">
      <circle
         style="fill:#ffd5d5;fill-opacity:1;stroke:#aa0000;stroke-width:2.12132;stroke-linecap:round;stroke-linejoin:round;stroke-miterlimit:16;stroke-dasharray:none;stroke-dashoffset:0;stroke-opacity:1;paint-order:fill markers stroke"
         id="circle30"
         cx="192"
         cy="295.99997"
         r="12" />
      <path
         style="fill:#ffd5d5;fill-opacity:1;stroke:#aa0000;stroke-width:2;stroke-linecap:round;stroke-linejoin:miter;stroke-dasharray:none;stroke-opacity:1"
         d="m 186.21083,295.99996 h 11.89841"
         id="path31"
         sodipodi:nodetypes="cc" />
    </g>
    <circle
       style="fill:#ffe6d5;fill-opacity:1;stroke:#ff6600;stroke-width:2.12132;stroke-linecap:round;stroke-linejoin:round;stroke-miterlimit:16;stroke-dasharray:none;stroke-dashoffset:0;stroke-opacity:1;paint-order:fill markers stroke"
       id="circle32"
       cx="47.964821"
       cy="295.99997"
       r="12" />
    <path
       style="font-weight:600;font-size:21.3333px;line-height:1.45;font-family:'.Apple SD Gothic NeoI';-inkscape-font-specification:'.Apple SD Gothic NeoI Semi-Bold';word-spacing:0px;direction:rtl;fill:#333333"
       d="m 47.996823,303.46663 c 3.007995,0 5.418658,-1.94133 5.418658,-6.95466 v -1.08799 c 0,-5.056 -2.45333,-6.89066 -5.375992,-6.89066 -2.943995,0 -5.525324,1.81333 -5.525324,6.97599 v 1.024 c 0,4.92799 2.410662,6.93332 5.482658,6.93332 z m 0,-1.74933 c -2.06933,0 -3.135995,-1.64267 -3.135995,-5.11999 v -1.32267 c 0,-3.45599 1.087998,-4.99199 3.157328,-4.99199 2.047997,0 3.114662,1.6 3.114662,5.11999 v 1.32267 c 0,3.56266 -1.066665,4.99199 -3.135995,4.99199 z"
       id="text23"
       aria-label="0" />
    <circle
       style="fill:#ffe6d5;fill-opacity:1;stroke:#ff6600;stroke-width:2.12132;stroke-linecap:round;stroke-linejoin:round;stroke-miterlimit:16;stroke-dasharray:none;stroke-dashoffset:0;stroke-opacity:1;paint-order:fill markers stroke"
       id="circle34"
       cx="144"
       cy="295.99997"
       r="12" />
    <path
       style="font-weight:600;font-size:21.3333px;line-height:1.45;font-family:'.Apple SD Gothic NeoI';-inkscape-font-specification:'.Apple SD Gothic NeoI Semi-Bold';word-spacing:0px;direction:rtl;fill:#333333"
       d="m 144.17066,303.33863 h 2.21867 v -14.67731 h -1.17334 l -3.60532,1.62133 v 1.30133 l 2.55999,-0.55467 z"
       id="text34"
       aria-label="1" />
    <circle
       style="fill:#ffe6d5;fill-opacity:1;stroke:#ff6600;stroke-width:2.12132;stroke-linecap:round;stroke-linejoin:round;stroke-miterlimit:16;stroke-dasharray:none;stroke-dashoffset:0;stroke-opacity:1;paint-order:fill markers stroke"
       id="circle36"
       cx="240"
       cy="295.99997"
       r="12" />
    <path
       style="font-weight:600;font-size:21.3333px;line-height:1.45;font-family:'.Apple SD Gothic NeoI';-inkscape-font-specification:'.Apple SD Gothic NeoI Semi-Bold';word-spacing:0px;direction:rtl;fill:#333333"
       d="m 240.032,303.46663 c 3.008,0 5.41866,-1.94133 5.41866,-6.95466 v -1.08799 c 0,-5.056 -2.45333,-6.89066 -5.37599,-6.89066 -2.944,0 -5.52533,1.81333 -5.52533,6.97599 v 1.024 c 0,4.92799 2.41067,6.93332 5.48266,6.93332 z m 0,-1.74933 c -2.06933,0 -3.13599,-1.64267 -3.13599,-5.11999 v -1.32267 c 0,-3.45599 1.08799,-4.99199 3.15733,-4.99199 2.04799,0 3.11466,1.6 3.11466,5.11999 v 1.32267 c 0,3.56266 -1.06667,4.99199 -3.136,4.99199 z"
       id="text36"
       aria-label="0" />
    <path
       style="fill:none;stroke:#ff6600;stroke-width:2;stroke-linecap:round;stroke-linejoin:miter;stroke-dasharray:16, 16;stroke-dashoffset:0;stroke-opacity:1"
       d="M 712,328.00002 H 536"
       id="path38"
       sodipodi:nodetypes="cc" />
    <path
       style="fill:#ffe6d5;stroke:#ff6600;stroke-width:2;stroke-linecap:butt;stroke-linejoin:miter;stroke-dasharray:none;stroke-opacity:1;paint-order:fill markers stroke"
       d="m 712,328.00002 -24,-8.23113 v 16.29476 z"
       id="path39"
       sodipodi:nodetypes="cccc" />
    <g
       id="g41"
       transform="translate(480,-7.9999694)">
      <circle
         style="fill:#d7f4d7;fill-opacity:1;stroke:#217821;stroke-width:2.12132;stroke-linecap:round;stroke-linejoin:round;stroke-miterlimit:16;stroke-dasharray:none;stroke-dashoffset:0;stroke-opacity:1;paint-order:fill markers stroke"
         id="circle39"
         cx="96"
         cy="304"
         r="12" />
      <path
         style="fill:none;stroke:#217821;stroke-width:2;stroke-linecap:round;stroke-linejoin:miter;stroke-dasharray:none;stroke-opacity:1"
         d="m 96.000003,297.99998 v 11.89696"
         id="path40"
         sodipodi:nodetypes="cc" />
      <path
         style="fill:none;stroke:#217821;stroke-width:2;stroke-linecap:round;stroke-linejoin:miter;stroke-dasharray:none;stroke-opacity:1"
         d="M 90.210834,303.99998 H 102.10924"
         id="path41"
         sodipodi:nodetypes="cc" />
    </g>
    <circle
       style="fill:#ffe6d5;fill-opacity:1;stroke:#ff6600;stroke-width:2.12132;stroke-linecap:round;stroke-linejoin:round;stroke-miterlimit:16;stroke-dasharray:none;stroke-dashoffset:0;stroke-opacity:1;paint-order:fill markers stroke"
       id="circle42"
       cx="527.96484"
       cy="296"
       r="12" />
    <path
       style="font-weight:600;font-size:21.3333px;line-height:1.45;font-family:'.Apple SD Gothic NeoI';-inkscape-font-specification:'.Apple SD Gothic NeoI Semi-Bold';word-spacing:0px;direction:rtl;fill:#333333"
       d="m 527.9968,303.46666 c 3.00799,0 5.41866,-1.94133 5.41866,-6.95466 v -1.08799 c 0,-5.056 -2.45333,-6.89066 -5.37599,-6.89066 -2.944,0 -5.52533,1.81333 -5.52533,6.97599 v 1.024 c 0,4.92799 2.41066,6.93332 5.48266,6.93332 z m 0,-1.74933 c -2.06933,0 -3.136,-1.64266 -3.136,-5.11999 v -1.32267 c 0,-3.45599 1.088,-4.99199 3.15733,-4.99199 2.048,0 3.11466,1.6 3.11466,5.11999 v 1.32267 c 0,3.56266 -1.06666,4.99199 -3.13599,4.99199 z"
       id="text42"
       aria-label="0" />
    <circle
       style="fill:#ffe6d5;fill-opacity:1;stroke:#ff6600;stroke-width:2.12132;stroke-linecap:round;stroke-linejoin:round;stroke-miterlimit:16;stroke-dasharray:none;stroke-dashoffset:0;stroke-opacity:1;paint-order:fill markers stroke"
       id="circle43"
       cx="624"
       cy="296"
       r="12" />
    <path
       style="font-weight:600;font-size:21.3333px;line-height:1.45;font-family:'.Apple SD Gothic NeoI';-inkscape-font-specification:'.Apple SD Gothic NeoI Semi-Bold';word-spacing:0px;direction:rtl;fill:#333333"
       d="m 624.17065,303.33866 h 2.21866 v -14.67731 h -1.17333 l -3.60533,1.62133 v 1.30133 l 2.56,-0.55467 z"
       id="text43"
       aria-label="1" />
    <circle
       style="fill:#ffe6d5;fill-opacity:1;stroke:#ff6600;stroke-width:2.12132;stroke-linecap:round;stroke-linejoin:round;stroke-miterlimit:16;stroke-dasharray:none;stroke-dashoffset:0;stroke-opacity:1;paint-order:fill markers stroke"
       id="circle44"
       cx="720"
       cy="296"
       r="12" />
    <path
       style="font-weight:600;font-size:21.3333px;line-height:1.45;font-family:'.Apple SD Gothic NeoI';-inkscape-font-specification:'.Apple SD Gothic NeoI Semi-Bold';word-spacing:0px;direction:rtl;fill:#333333"
       d="m 715.43469,303.33865 h 9.13066 v -1.792 h -6.14399 l 1.96266,-1.96266 c 2.048,-2.15466 3.98933,-4.20266 3.98933,-6.74132 0,-2.60266 -1.62133,-4.18133 -4.69333,-4.18133 -1.64266,0 -3.11466,0.61867 -4.05333,1.19467 l 0.448,1.68533 c 0.81067,-0.53334 2.00533,-1.06667 3.09333,-1.06667 1.92,0 2.88,0.78933 2.88,2.624 0,1.91999 -1.536,3.62666 -3.54133,5.73865 l -3.072,3.2 z"
       id="text44"
       aria-label="2" />
    <g
       id="g46"
       transform="translate(576,-8)">
      <circle
         style="fill:#d7f4d7;fill-opacity:1;stroke:#217821;stroke-width:2.12132;stroke-linecap:round;stroke-linejoin:round;stroke-miterlimit:16;stroke-dasharray:none;stroke-dashoffset:0;stroke-opacity:1;paint-order:fill markers stroke"
         id="circle45"
         cx="96"
         cy="304"
         r="12" />
      <path
         style="fill:none;stroke:#217821;stroke-width:2;stroke-linecap:round;stroke-linejoin:miter;stroke-dasharray:none;stroke-opacity:1"
         d="m 96.000003,297.99998 v 11.89696"
         id="path45"
         sodipodi:nodetypes="cc" />
      <path
         style="fill:none;stroke:#217821;stroke-width:2;stroke-linecap:round;stroke-linejoin:miter;stroke-dasharray:none;stroke-opacity:1"
         d="M 90.210834,303.99998 H 102.10924"
         id="path46"
         sodipodi:nodetypes="cc" />
    </g>
    <path
       style="fill:none;stroke:#ff6600;stroke-width:2;stroke-linecap:round;stroke-linejoin:miter;stroke-dasharray:16, 16;stroke-dashoffset:0;stroke-opacity:1"
       d="M 1192,328.00002 H 1016"
       id="path47"
       sodipodi:nodetypes="cc" />
    <path
       style="fill:#ffe6d5;stroke:#ff6600;stroke-width:2;stroke-linecap:butt;stroke-linejoin:miter;stroke-dasharray:none;stroke-opacity:1;paint-order:fill markers stroke"
       d="m 1192,328.00002 -24,-8.23113 v 16.29476 z"
       id="path48"
       sodipodi:nodetypes="cccc" />
    <circle
       style="fill:#ffe6d5;fill-opacity:1;stroke:#ff6600;stroke-width:2.12132;stroke-linecap:round;stroke-linejoin:round;stroke-miterlimit:16;stroke-dasharray:none;stroke-dashoffset:0;stroke-opacity:1;paint-order:fill markers stroke"
       id="circle50"
       cx="1007.9648"
       cy="296"
       r="12" />
    <path
       style="font-weight:600;font-size:21.3333px;line-height:1.45;font-family:'.Apple SD Gothic NeoI';-inkscape-font-specification:'.Apple SD Gothic NeoI Semi-Bold';word-spacing:0px;direction:rtl;fill:#333333"
       d="m 1007.9968,303.46666 c 3.008,0 5.4187,-1.94133 5.4187,-6.95466 v -1.08799 c 0,-5.056 -2.4534,-6.89066 -5.376,-6.89066 -2.944,0 -5.5254,1.81333 -5.5254,6.97599 v 1.024 c 0,4.92799 2.4107,6.93332 5.4827,6.93332 z m 0,-1.74933 c -2.0693,0 -3.136,-1.64266 -3.136,-5.11999 v -1.32267 c 0,-3.45599 1.088,-4.99199 3.1573,-4.99199 2.048,0 3.1147,1.6 3.1147,5.11999 v 1.32267 c 0,3.56266 -1.0667,4.99199 -3.136,4.99199 z"
       id="text50"
       aria-label="0" />
    <circle
       style="fill:#ffe6d5;fill-opacity:1;stroke:#ff6600;stroke-width:2.12132;stroke-linecap:round;stroke-linejoin:round;stroke-miterlimit:16;stroke-dasharray:none;stroke-dashoffset:0;stroke-opacity:1;paint-order:fill markers stroke"
       id="circle51"
       cx="1104"
       cy="296"
       r="12" />
    <path
       style="font-weight:600;font-size:21.3333px;line-height:1.45;font-family:'.Apple SD Gothic NeoI';-inkscape-font-specification:'.Apple SD Gothic NeoI Semi-Bold';word-spacing:0px;direction:rtl;fill:#333333"
       d="m 1106.8373,303.33866 h 2.2186 v -14.67731 h -1.1733 l -3.6053,1.62133 v 1.30133 l 2.56,-0.55467 z M 1096,297.10933 h 6.3573 V 295.296 H 1096 Z"
       id="text51"
       aria-label="1-" />
    <circle
       style="fill:#ffe6d5;fill-opacity:1;stroke:#ff6600;stroke-width:2.12132;stroke-linecap:round;stroke-linejoin:round;stroke-miterlimit:16;stroke-dasharray:none;stroke-dashoffset:0;stroke-opacity:1;paint-order:fill markers stroke"
       id="circle52"
       cx="1200"
       cy="296"
       r="12" />
    <path
       style="font-weight:600;font-size:21.3333px;line-height:1.45;font-family:'.Apple SD Gothic NeoI';-inkscape-font-specification:'.Apple SD Gothic NeoI Semi-Bold';word-spacing:0px;direction:rtl;fill:#333333"
       d="m 1198.576,303.33865 h 9.1306 v -1.792 h -6.1439 l 1.9626,-1.96266 c 2.048,-2.15466 3.9893,-4.20266 3.9893,-6.74132 0,-2.60266 -1.6213,-4.18133 -4.6933,-4.18133 -1.6426,0 -3.1146,0.61867 -4.0533,1.19467 l 0.448,1.68533 c 0.8107,-0.53334 2.0053,-1.06667 3.0933,-1.06667 1.92,0 2.88,0.78933 2.88,2.624 0,1.91999 -1.536,3.62666 -3.5413,5.73865 l -3.072,3.2 z M 1190,297.19466 h 6.3573 v -1.81333 H 1190 Z"
       id="text52"
       aria-label="2-" />
    <g
       id="g55"
       transform="translate(864,2.8564453e-5)">
      <circle
         style="fill:#ffd5d5;fill-opacity:1;stroke:#aa0000;stroke-width:2.12132;stroke-linecap:round;stroke-linejoin:round;stroke-miterlimit:16;stroke-dasharray:none;stroke-dashoffset:0;stroke-opacity:1;paint-order:fill markers stroke"
         id="circle54"
         cx="192"
         cy="295.99997"
         r="12" />
      <path
         style="fill:#ffd5d5;fill-opacity:1;stroke:#aa0000;stroke-width:2;stroke-linecap:round;stroke-linejoin:miter;stroke-dasharray:none;stroke-opacity:1"
         d="m 186.21083,295.99996 h 11.89841"
         id="path55"
         sodipodi:nodetypes="cc" />
    </g>
    <g
       id="g56"
       transform="translate(960,2.6515961e-5)">
      <circle
         style="fill:#ffd5d5;fill-opacity:1;stroke:#aa0000;stroke-width:2.12132;stroke-linecap:round;stroke-linejoin:round;stroke-miterlimit:16;stroke-dasharray:none;stroke-dashoffset:0;stroke-opacity:1;paint-order:fill markers stroke"
         id="circle55"
         cx="192"
         cy="295.99997"
         r="12" />
      <path
         style="fill:#ffd5d5;fill-opacity:1;stroke:#aa0000;stroke-width:2;stroke-linecap:round;stroke-linejoin:miter;stroke-dasharray:none;stroke-opacity:1"
         d="m 186.21083,295.99996 h 11.89841"
         id="path56"
         sodipodi:nodetypes="cc" />
    </g>
  </g>
</svg>
